<svg width="641" height="858" viewBox="0 0 641 858" fill="none" xmlns="http://www.w3.org/2000/svg">
<path d="M533.63 403.693L531.49 382.469L486.641 371.479L481.647 356.553L433.944 340.052L411.802 226.352L450.083 197.877L446.606 165.663L391.205 132.596L370.876 83.5861L334.734 79.748L302.07 57.5065L258.291 68.2336L233.265 12.9906L206.813 0L186.543 32.8702L188.416 57.6377L158.189 74.0072L149.273 111.667L118.838 148.178L79.992 164.974L76.8415 213.624L55.8582 266.34L19.3603 266.931L11.811 344.087L48.3387 361.408L91.5536 372.201L116.698 413.896L113.458 453.589L92.8316 507.914L122.731 528.252L121.156 546.853L85.6093 539.832L74.0774 551.216L83.7369 572.211L71.67 579.165L77.9709 612.757L102.105 615.086L108.287 626.076L104.928 656.387L116.817 667.77L142.764 657.601L158.278 664.293L155.128 692.111L130.459 700.214L163.777 747.65L213.263 735.348L264.532 714.123L314.375 752.636L334.318 735.348L387.728 671.674H428.327L443.99 648.088L480.31 614.299L511.636 554.562L513.063 491.675L524.446 452.375L507.832 420.949L533.719 403.661L533.63 403.693ZM237.337 433.939L209.726 431.184L169.572 442.272L141.486 409.598L119.908 376.367L125.436 354.782L154.533 364.754L162.053 343.727L188.148 344.842L201.701 303.311L230.799 302.196L245.838 345.957L240.309 376.4L270.417 384.175L237.308 434.005L237.337 433.939Z" fill="#EFEFEF"/>
<path d="M361.82 504.597H352.16V501.777H365.06V503.727C365.06 504.027 365.06 504.297 365.03 504.567H370.88V501.447H374.15V517.227H370.88V513.207H364.31V510.387H370.88V507.357H364.7C363.41 513.267 358.76 515.997 351.5 516.717V513.867C358.07 513.177 361.82 510.177 361.82 504.597ZM364.1 529.287C360.98 529.287 357.89 528.867 355.82 527.577C354.38 526.677 353.45 525.327 353.45 523.497C353.45 521.667 354.38 520.317 355.82 519.417C357.89 518.157 360.98 517.707 364.1 517.707C367.22 517.707 370.34 518.157 372.38 519.417C373.82 520.317 374.78 521.667 374.78 523.497C374.78 525.327 373.82 526.677 372.38 527.577C370.34 528.867 367.22 529.287 364.1 529.287ZM364.1 520.497C361.64 520.497 359.24 520.797 357.86 521.637C357.14 522.117 356.69 522.717 356.69 523.497C356.69 524.277 357.14 524.877 357.86 525.327C359.24 526.167 361.64 526.497 364.1 526.497C366.59 526.497 368.99 526.167 370.34 525.327C371.06 524.877 371.51 524.277 371.51 523.497C371.51 522.717 371.06 522.117 370.34 521.637C368.99 520.797 366.59 520.497 364.1 520.497ZM389.508 507.807V504.807H379.668V501.927H392.718V507.417C392.718 517.767 388.878 524.667 379.488 527.067V523.977C386.388 521.967 389.508 516.297 389.508 507.807ZM401.388 501.447V528.657H398.118V501.447H401.388ZM428.777 504.807H410.717V514.047H428.987V516.897H419.807V524.637H430.187V527.457H406.037V524.637H416.567V516.897H407.447V501.927H428.777V504.807Z" fill="#222222"/>
<path d="M144.24 541.522C144.24 540.234 144.632 539.24 145.304 538.624C145.864 538.12 146.634 537.854 147.558 537.854C148.51 537.854 149.266 538.12 149.826 538.624C150.512 539.24 150.89 540.234 150.89 541.522C150.89 542.824 150.512 543.818 149.826 544.434C149.266 544.938 148.51 545.204 147.558 545.204C146.634 545.204 145.864 544.938 145.304 544.434C144.632 543.818 144.24 542.824 144.24 541.522ZM145.724 541.522C145.724 542.376 145.934 543.006 146.312 543.412C146.62 543.72 147.04 543.888 147.558 543.888C148.09 543.888 148.51 543.72 148.818 543.412C149.196 543.006 149.406 542.376 149.406 541.522C149.406 540.682 149.196 540.038 148.818 539.646C148.51 539.338 148.09 539.17 147.558 539.17C147.04 539.17 146.62 539.338 146.312 539.646C145.934 540.038 145.724 540.682 145.724 541.522ZM154.474 537.938V541.396H156.322V542.74H154.474V546.828H152.948V537.938H154.474ZM146.62 546.38V549.376H154.712V550.692H145.108V546.38H146.62ZM161.025 538.022V540.192C161.025 542.39 162.229 543.51 163.853 544.014V545.358C162.257 545.008 160.927 544.126 160.269 543.062C159.667 544.154 158.323 545.12 156.671 545.512V544.154C158.337 543.636 159.513 542.334 159.513 540.192V538.022H161.025ZM167.213 537.938V541.396H169.061V542.74H167.213V546.828H165.687V537.938H167.213ZM159.359 546.38V549.376H167.451V550.692H157.847V546.38H159.359Z" fill="#666666"/>
<path d="M123.203 195.773V189.907H121.313V198.853H122.979C123.147 198.013 123.203 196.865 123.203 195.773ZM119.815 198.853V189.907H118.639V188.563H125.919V189.907H124.701V195.423C124.701 196.683 124.603 197.957 124.393 198.853H124.645C125.779 198.853 126.661 198.615 127.179 198.167V188.339H128.705V193.519H130.693V194.849H128.705V201.037H127.179V199.413C126.675 199.917 125.611 200.183 124.351 200.183H118.485V198.853H119.815ZM141.794 189.823H137.552V189.865C137.552 192.063 139.638 193.337 141.92 193.715V195.073C139.666 194.695 137.818 193.771 136.81 192.343C135.802 193.771 133.898 194.695 131.686 195.073V193.715C133.954 193.337 136.04 192.063 136.04 189.865V189.823H131.84V188.493H141.794V189.823ZM131.182 197.831V196.487H142.452V197.831H137.552V201.247H136.04V197.831H131.182Z" fill="#666666"/>
<path d="M224.69 138.743H226.986V140.073H222.576V143.461H227.42V144.777H216.15V143.461H221.064V140.073H216.584V138.743H218.46V134.207H216.808V132.863H226.762V134.207H225.096V136.223C225.096 137.147 224.97 138.141 224.69 138.743ZM220 134.207V138.743H223.22C223.486 138.141 223.57 137.203 223.57 136.377V134.207H220ZM229.225 135.229V133.913H231.745V132.275H233.257V133.913H235.777V135.229H233.257V135.425C233.257 137.595 234.433 138.603 236.015 138.953V140.297C234.489 140.031 233.187 139.247 232.529 138.155C231.871 139.247 230.541 140.213 229.001 140.465V139.121C230.611 138.771 231.745 137.637 231.745 135.425V135.229H229.225ZM239.487 141.557H237.961V137.511H235.455V136.209H237.961V132.639H239.487V141.557ZM239.711 145.393H229.995V141.221H231.521V144.077H239.711V145.393Z" fill="#666666"/>
<path d="M330.481 190.733C330.481 190.061 330.761 189.557 331.279 189.179C332.175 188.535 333.729 188.325 335.619 188.325C337.495 188.325 339.063 188.535 339.945 189.179C340.463 189.557 340.743 190.061 340.743 190.733C340.743 191.419 340.463 191.923 339.945 192.287C339.609 192.539 339.175 192.721 338.657 192.847V194.247H341.317V195.549H329.879V194.247H332.609V192.861C332.077 192.735 331.629 192.539 331.279 192.287C330.761 191.923 330.481 191.419 330.481 190.733ZM337.159 193.099C336.683 193.141 336.165 193.155 335.619 193.155C335.087 193.155 334.583 193.141 334.107 193.099V194.247H337.159V193.099ZM332.007 190.733C332.007 190.985 332.133 191.195 332.357 191.349C332.903 191.727 334.079 191.867 335.619 191.867C337.159 191.867 338.321 191.727 338.867 191.349C339.105 191.195 339.231 190.985 339.231 190.733C339.231 190.481 339.105 190.285 338.867 190.131C338.321 189.753 337.159 189.613 335.619 189.613C334.079 189.613 332.903 189.753 332.357 190.131C332.133 190.285 332.007 190.481 332.007 190.733ZM330.481 198.993C330.481 198.209 330.845 197.677 331.503 197.285C332.385 196.781 333.813 196.571 335.619 196.571C337.439 196.571 338.839 196.781 339.721 197.285C340.379 197.677 340.743 198.209 340.743 198.993C340.743 199.777 340.379 200.309 339.721 200.701C338.839 201.205 337.439 201.401 335.619 201.401C333.813 201.401 332.385 201.205 331.503 200.701C330.845 200.309 330.481 199.777 330.481 198.993ZM332.007 198.993C332.007 199.273 332.161 199.511 332.441 199.679C333.015 200.001 334.079 200.127 335.619 200.127C337.159 200.127 338.223 200.001 338.783 199.679C339.077 199.511 339.231 199.273 339.231 198.993C339.231 198.713 339.077 198.489 338.783 198.307C338.223 197.985 337.159 197.859 335.619 197.859C334.079 197.859 333.015 197.985 332.441 198.307C332.161 198.489 332.007 198.713 332.007 198.993ZM353.23 188.493V193.323H343.458V188.493H353.23ZM344.97 192.049H351.704V189.781H344.97V192.049ZM342.618 196.067V194.751H354.056V196.067H349.24V198.419H347.728V196.067H342.618ZM344.97 197.397V199.777H353.454V201.093H343.458V197.397H344.97Z" fill="#666666"/>
<path d="M293.485 179.764C293.485 178.588 293.863 177.692 294.549 177.118C295.109 176.656 295.893 176.404 296.803 176.404C297.741 176.404 298.497 176.656 299.071 177.118C299.757 177.692 300.135 178.588 300.135 179.764C300.135 180.926 299.757 181.822 299.071 182.396C298.497 182.872 297.741 183.11 296.803 183.11C295.893 183.11 295.109 182.872 294.549 182.396C293.863 181.822 293.485 180.926 293.485 179.764ZM294.969 179.764C294.969 180.464 295.179 181.01 295.543 181.36C295.865 181.64 296.285 181.808 296.803 181.808C297.335 181.808 297.769 181.64 298.063 181.36C298.441 181.01 298.651 180.464 298.651 179.764C298.651 179.064 298.441 178.518 298.063 178.168C297.769 177.874 297.335 177.72 296.803 177.72C296.285 177.72 295.865 177.874 295.543 178.168C295.179 178.518 294.969 179.064 294.969 179.764ZM303.719 177.888H305.497V179.218H303.719V180.786H305.497V182.13H303.719V183.726H302.193V176.488H303.719V177.888ZM294.185 186.778C294.185 186.008 294.549 185.42 295.123 184.986C296.033 184.342 297.461 184.076 299.113 184.076C300.751 184.076 302.193 184.342 303.089 184.986C303.663 185.42 304.027 186.008 304.027 186.778C304.027 187.562 303.663 188.15 303.089 188.584C302.193 189.228 300.751 189.48 299.113 189.48C297.461 189.48 296.033 189.228 295.123 188.584C294.549 188.15 294.185 187.562 294.185 186.778ZM295.711 186.778C295.711 187.128 295.893 187.422 296.229 187.646C296.789 188.024 297.811 188.178 299.113 188.178C300.401 188.178 301.423 188.024 302.011 187.646C302.333 187.422 302.501 187.128 302.501 186.778C302.501 186.428 302.333 186.134 302.011 185.91C301.423 185.546 300.401 185.378 299.113 185.378C297.811 185.378 296.789 185.546 296.229 185.91C295.893 186.134 295.711 186.428 295.711 186.778ZM312.132 183.068H306.238V181.794H307.568V177.93H306.392V176.642H313.63V177.93H312.426V179.918C312.426 180.534 312.356 181.248 312.202 181.794H312.216C312.972 181.794 313.672 181.752 314.26 181.57V182.788C313.672 182.998 312.93 183.068 312.132 183.068ZM309.052 181.794H310.746C310.886 181.276 310.942 180.604 310.942 180.002V177.93H309.052V181.794ZM313.336 179.344V178.14H315.268V176.488H316.794V183.852H315.268V181.304H313.336V180.114H315.268V179.344H313.336ZM312.104 189.48C310.648 189.48 309.206 189.284 308.24 188.682C307.568 188.262 307.134 187.632 307.134 186.778C307.134 185.924 307.568 185.294 308.24 184.874C309.206 184.286 310.648 184.076 312.104 184.076C313.56 184.076 315.016 184.286 315.968 184.874C316.64 185.294 317.088 185.924 317.088 186.778C317.088 187.632 316.64 188.262 315.968 188.682C315.016 189.284 313.56 189.48 312.104 189.48ZM312.104 185.378C310.956 185.378 309.836 185.518 309.192 185.91C308.856 186.134 308.646 186.414 308.646 186.778C308.646 187.142 308.856 187.422 309.192 187.632C309.836 188.024 310.956 188.178 312.104 188.178C313.266 188.178 314.386 188.024 315.016 187.632C315.352 187.422 315.562 187.142 315.562 186.778C315.562 186.414 315.352 186.134 315.016 185.91C314.386 185.518 313.266 185.378 312.104 185.378Z" fill="#666666"/>
<path d="M197.825 541.368C196.971 542.796 195.039 543.888 192.407 544.294V542.95C195.207 542.432 197.055 541.018 197.055 538.554V538.022H198.567V538.554C198.567 541.018 200.443 542.418 203.243 542.95V544.294C200.625 543.888 198.679 542.796 197.825 541.368ZM192.197 547.43V546.086H203.467V547.43H198.567V550.846H197.055V547.43H192.197ZM205.301 540.234C205.301 539.534 205.609 538.974 206.085 538.596C206.743 538.078 207.737 537.854 208.801 537.854C209.865 537.854 210.845 538.078 211.489 538.596C211.979 538.974 212.273 539.534 212.273 540.234C212.273 540.948 211.979 541.508 211.489 541.886C210.845 542.39 209.865 542.628 208.801 542.628C207.737 542.628 206.743 542.39 206.085 541.886C205.609 541.508 205.301 540.948 205.301 540.234ZM206.757 540.234C206.757 540.584 206.911 540.836 207.149 541.018C207.513 541.298 208.087 541.438 208.801 541.438C209.487 541.438 210.089 541.298 210.439 541.018C210.677 540.836 210.817 540.584 210.817 540.234C210.817 539.898 210.677 539.646 210.439 539.45C210.089 539.184 209.487 539.044 208.801 539.044C208.087 539.044 207.513 539.184 207.149 539.45C206.911 539.646 206.757 539.898 206.757 540.234ZM215.535 547.598H214.009V546.59H211.237V545.386H214.009V537.938H215.535V547.598ZM209.011 544.616V546.8H207.485V544.616H204.825V543.356H210.593C211.615 543.356 212.511 543.3 213.211 543.104V544.322C212.567 544.532 211.643 544.616 210.635 544.616H209.011ZM215.759 550.762H206.043V547.164H207.569V549.446H215.759V550.762ZM217.298 545.372H222.086V544.014H217.298V545.372ZM228.013 539.408H223.505V538.092H229.525V539.002C229.525 539.142 229.525 539.268 229.511 539.394H232.241V537.938H233.767V545.302H232.241V543.426H229.175V542.11H232.241V540.696H229.357C228.755 543.454 226.585 544.728 223.197 545.064V543.734C226.263 543.412 228.013 542.012 228.013 539.408ZM229.077 550.93C227.621 550.93 226.179 550.734 225.213 550.132C224.541 549.712 224.107 549.082 224.107 548.228C224.107 547.374 224.541 546.744 225.213 546.324C226.179 545.736 227.621 545.526 229.077 545.526C230.533 545.526 231.989 545.736 232.941 546.324C233.613 546.744 234.061 547.374 234.061 548.228C234.061 549.082 233.613 549.712 232.941 550.132C231.989 550.734 230.533 550.93 229.077 550.93ZM229.077 546.828C227.929 546.828 226.809 546.968 226.165 547.36C225.829 547.584 225.619 547.864 225.619 548.228C225.619 548.592 225.829 548.872 226.165 549.082C226.809 549.474 227.929 549.628 229.077 549.628C230.239 549.628 231.359 549.474 231.989 549.082C232.325 548.872 232.535 548.592 232.535 548.228C232.535 547.864 232.325 547.584 231.989 547.36C231.359 546.968 230.239 546.828 229.077 546.828ZM240.935 540.906V539.506H236.343V538.162H242.433V540.724C242.433 545.554 240.641 548.774 236.259 549.894V548.452C239.479 547.514 240.935 544.868 240.935 540.906ZM246.479 537.938V550.636H244.953V537.938H246.479ZM250.832 542.852V544.924H259.414V546.24H255.074V548.76H259.918V550.076H248.648V548.76H253.562V546.24H249.306V541.536H257.734V539.506H249.306V538.162H259.26V542.852H250.832ZM266.302 539.352H261.724V538.092H267.814V538.89C267.814 542.376 265.462 544 261.416 544.392V543.146C263.348 542.936 264.762 542.432 265.56 541.508C265.028 541.634 264.314 541.718 263.46 541.718H261.724V540.472H263.516C264.72 540.472 265.658 540.402 266.204 540.206V540.234C266.274 539.968 266.302 539.674 266.302 539.352ZM271.986 544.112H270.46V541.564H268.024V540.234H270.46V537.938H271.986V544.112ZM264.02 548.424V549.53H272.14V550.762H262.494V547.22H270.46V546.086H262.494V544.868H271.986V548.424H264.02Z" fill="#666666"/>
<path d="M6.706 356.495C5.852 357.923 3.92 359.015 1.288 359.421V358.077C4.088 357.559 5.936 356.145 5.936 353.681V353.149H7.448V353.681C7.448 356.145 9.324 357.545 12.124 358.077V359.421C9.506 359.015 7.56 357.923 6.706 356.495ZM1.078 362.557V361.213H12.348V362.557H7.448V365.973H5.936V362.557H1.078ZM14.1815 355.361C14.1815 354.661 14.4895 354.101 14.9655 353.723C15.6235 353.205 16.6175 352.981 17.6815 352.981C18.7455 352.981 19.7255 353.205 20.3695 353.723C20.8595 354.101 21.1535 354.661 21.1535 355.361C21.1535 356.075 20.8595 356.635 20.3695 357.013C19.7255 357.517 18.7455 357.755 17.6815 357.755C16.6175 357.755 15.6235 357.517 14.9655 357.013C14.4895 356.635 14.1815 356.075 14.1815 355.361ZM15.6375 355.361C15.6375 355.711 15.7915 355.963 16.0295 356.145C16.3935 356.425 16.9675 356.565 17.6815 356.565C18.3675 356.565 18.9695 356.425 19.3195 356.145C19.5575 355.963 19.6975 355.711 19.6975 355.361C19.6975 355.025 19.5575 354.773 19.3195 354.577C18.9695 354.311 18.3675 354.171 17.6815 354.171C16.9675 354.171 16.3935 354.311 16.0295 354.577C15.7915 354.773 15.6375 355.025 15.6375 355.361ZM24.4155 362.725H22.8895V361.717H20.1175V360.513H22.8895V353.065H24.4155V362.725ZM17.8915 359.743V361.927H16.3655V359.743H13.7055V358.483H19.4735C20.4955 358.483 21.3915 358.427 22.0915 358.231V359.449C21.4475 359.659 20.5235 359.743 19.5155 359.743H17.8915ZM24.6395 365.889H14.9235V362.291H16.4495V364.573H24.6395V365.889ZM26.1789 360.499H30.9669V359.141H26.1789V360.499ZM36.8943 354.535H32.3863V353.219H38.4063V354.129C38.4063 354.269 38.4063 354.395 38.3923 354.521H41.1223V353.065H42.6483V360.429H41.1223V358.553H38.0563V357.237H41.1223V355.823H38.2383C37.6363 358.581 35.4663 359.855 32.0783 360.191V358.861C35.1443 358.539 36.8943 357.139 36.8943 354.535ZM37.9583 366.057C36.5023 366.057 35.0603 365.861 34.0943 365.259C33.4223 364.839 32.9883 364.209 32.9883 363.355C32.9883 362.501 33.4223 361.871 34.0943 361.451C35.0603 360.863 36.5023 360.653 37.9583 360.653C39.4143 360.653 40.8703 360.863 41.8223 361.451C42.4943 361.871 42.9423 362.501 42.9423 363.355C42.9423 364.209 42.4943 364.839 41.8223 365.259C40.8703 365.861 39.4143 366.057 37.9583 366.057ZM37.9583 361.955C36.8103 361.955 35.6903 362.095 35.0463 362.487C34.7103 362.711 34.5003 362.991 34.5003 363.355C34.5003 363.719 34.7103 363.999 35.0463 364.209C35.6903 364.601 36.8103 364.755 37.9583 364.755C39.1203 364.755 40.2403 364.601 40.8703 364.209C41.2063 363.999 41.4163 363.719 41.4163 363.355C41.4163 362.991 41.2063 362.711 40.8703 362.487C40.2403 362.095 39.1203 361.955 37.9583 361.955ZM49.8157 356.033V354.633H45.2237V353.289H51.3137V355.851C51.3137 360.681 49.5217 363.901 45.1397 365.021V363.579C48.3597 362.641 49.8157 359.995 49.8157 356.033ZM55.3597 353.065V365.763H53.8337V353.065H55.3597ZM59.7132 357.979V360.051H68.2952V361.367H63.9552V363.887H68.7992V365.203H57.5292V363.887H62.4432V361.367H58.1872V356.663H66.6152V354.633H58.1872V353.289H68.1412V357.979H59.7132ZM75.1826 354.479H70.6046V353.219H76.6946V354.017C76.6946 357.503 74.3426 359.127 70.2966 359.519V358.273C72.2286 358.063 73.6426 357.559 74.4406 356.635C73.9086 356.761 73.1946 356.845 72.3406 356.845H70.6046V355.599H72.3966C73.6006 355.599 74.5386 355.529 75.0846 355.333V355.361C75.1546 355.095 75.1826 354.801 75.1826 354.479ZM80.8666 359.239H79.3406V356.691H76.9046V355.361H79.3406V353.065H80.8666V359.239ZM72.9006 363.551V364.657H81.0206V365.889H71.3746V362.347H79.3406V361.213H71.3746V359.995H80.8666V363.551H72.9006Z" fill="#666666"/>
<path d="M77.93 317.797H73.352V316.481H79.442V317.391C79.442 321.325 77.062 323.061 73.044 323.453V322.123C76.11 321.801 77.93 320.401 77.93 317.797ZM83.614 323.411H82.088V316.327H83.614V323.411ZM74.122 329.151V324.223H83.614V329.151H74.122ZM82.088 325.525H75.648V327.863H82.088V325.525ZM94.2954 322.431H96.5914V323.761H92.1814V327.149H97.0254V328.465H85.7554V327.149H90.6694V323.761H86.1894V322.431H88.0654V317.895H86.4134V316.551H96.3674V317.895H94.7014V319.911C94.7014 320.835 94.5754 321.829 94.2954 322.431ZM89.6054 317.895V322.431H92.8254C93.0914 321.829 93.1754 320.891 93.1754 320.065V317.895H89.6054ZM105.061 320.317C105.061 318.497 103.857 317.027 101.701 317.027C99.5449 317.027 98.3269 318.497 98.3269 320.317V320.625H99.9089V320.331C99.9089 319.169 100.581 318.399 101.701 318.399C102.751 318.399 103.493 319.197 103.493 320.331C103.493 320.975 103.283 321.479 102.737 322.095L98.4809 326.953V328.185H105.215V326.827H100.581L104.011 322.921C104.823 321.997 105.047 321.381 105.061 320.317ZM117.342 317.461V318.777H106.772V317.461H111.28V315.879H112.834V317.461H117.342ZM108.606 322.445C108.606 322.865 108.858 323.173 109.292 323.411C109.908 323.747 110.902 323.915 112.05 323.915C113.212 323.915 114.192 323.747 114.808 323.411C115.256 323.173 115.508 322.865 115.508 322.445C115.508 321.997 115.228 321.661 114.752 321.423C114.136 321.129 113.17 320.975 112.05 320.975C110.832 320.975 109.796 321.143 109.194 321.507C108.816 321.745 108.606 322.053 108.606 322.445ZM107.08 322.445C107.08 321.563 107.542 320.919 108.284 320.471C109.208 319.925 110.538 319.687 112.05 319.687C113.604 319.687 114.99 319.939 115.9 320.513C116.6 320.961 117.02 321.591 117.02 322.445C117.02 323.299 116.6 323.943 115.886 324.391C115.144 324.867 114.066 325.105 112.834 325.175V327.149H117.692V328.465H106.422V327.149H111.336V325.189C110.174 325.119 109.152 324.895 108.41 324.489C107.57 324.041 107.08 323.369 107.08 322.445ZM119.497 317.797V316.481H126.049V317.797H123.529V318.273C123.529 320.429 124.705 321.451 126.287 321.801V323.145C124.761 322.879 123.459 322.081 122.801 321.003C122.143 322.095 120.813 323.061 119.273 323.313V321.955C120.883 321.605 122.017 320.471 122.017 318.273V317.797H119.497ZM129.759 323.411H128.233V320.345H125.615V319.043H128.233V316.327H129.759V323.411ZM120.267 329.151V324.223H129.759V329.151H120.267ZM128.233 325.525H121.793V327.863H128.233V325.525Z" fill="#666666"/>
<path d="M13.5076 283.43H8.92963V282.114H15.0196V283.024C15.0196 286.958 12.6396 288.694 8.62163 289.086V287.756C11.6876 287.434 13.5076 286.034 13.5076 283.43ZM19.1916 289.044H17.6656V281.96H19.1916V289.044ZM9.69963 294.784V289.856H19.1916V294.784H9.69963ZM17.6656 291.158H11.2256V293.496H17.6656V291.158ZM29.8731 288.064H32.1691V289.394H27.7591V292.782H32.6031V294.098H21.3331V292.782H26.2471V289.394H21.7671V288.064H23.6431V283.528H21.9911V282.184H31.9451V283.528H30.2791V285.544C30.2791 286.468 30.1531 287.462 29.8731 288.064ZM25.1831 283.528V288.064H28.4031C28.6691 287.462 28.7531 286.524 28.7531 285.698V283.528H25.1831ZM38.9585 293.818V282.842H37.6145L34.8005 284.116V285.656L37.3765 284.508V293.818H38.9585ZM52.9195 283.094V284.41H42.3495V283.094H46.8575V281.512H48.4115V283.094H52.9195ZM44.1835 288.078C44.1835 288.498 44.4355 288.806 44.8695 289.044C45.4855 289.38 46.4795 289.548 47.6275 289.548C48.7895 289.548 49.7695 289.38 50.3855 289.044C50.8335 288.806 51.0855 288.498 51.0855 288.078C51.0855 287.63 50.8055 287.294 50.3295 287.056C49.7135 286.762 48.7475 286.608 47.6275 286.608C46.4095 286.608 45.3735 286.776 44.7715 287.14C44.3935 287.378 44.1835 287.686 44.1835 288.078ZM42.6575 288.078C42.6575 287.196 43.1195 286.552 43.8615 286.104C44.7855 285.558 46.1155 285.32 47.6275 285.32C49.1815 285.32 50.5675 285.572 51.4775 286.146C52.1775 286.594 52.5975 287.224 52.5975 288.078C52.5975 288.932 52.1775 289.576 51.4635 290.024C50.7215 290.5 49.6435 290.738 48.4115 290.808V292.782H53.2695V294.098H41.9995V292.782H46.9135V290.822C45.7515 290.752 44.7295 290.528 43.9875 290.122C43.1475 289.674 42.6575 289.002 42.6575 288.078ZM55.0749 283.43V282.114H61.6269V283.43H59.1069V283.906C59.1069 286.062 60.2829 287.084 61.8649 287.434V288.778C60.3389 288.512 59.0369 287.714 58.3789 286.636C57.7209 287.728 56.3909 288.694 54.8509 288.946V287.588C56.4609 287.238 57.5949 286.104 57.5949 283.906V283.43H55.0749ZM65.3369 289.044H63.8109V285.978H61.1929V284.676H63.8109V281.96H65.3369V289.044ZM55.8449 294.784V289.856H65.3369V294.784H55.8449ZM63.8109 291.158H57.3709V293.496H63.8109V291.158Z" fill="#666666"/>
<path d="M156.329 490.592H156.184H156.118C148.184 490.73 141.729 497.972 141.729 506.721C141.729 511.602 143.821 516.957 147.94 522.654C148.171 522.975 148.408 523.295 148.653 523.616C148.666 523.631 148.672 523.645 148.686 523.66C149.148 524.264 149.636 524.884 150.144 525.496C150.342 525.736 150.54 525.976 150.745 526.21C150.804 526.282 150.864 526.348 150.93 526.421C153.049 528.876 155.029 530.778 156.223 531.863C157.425 530.77 159.425 528.854 161.563 526.377C161.61 526.326 161.656 526.268 161.702 526.217C161.92 525.962 162.138 525.707 162.349 525.445C162.837 524.855 163.313 524.257 163.761 523.667C163.781 523.645 163.794 523.623 163.814 523.601C164.058 523.281 164.296 522.96 164.527 522.633C168.633 516.943 170.718 511.595 170.718 506.721C170.712 497.972 164.263 490.73 156.329 490.592ZM156.223 514.167C151.999 514.167 148.56 510.371 148.56 505.709C148.56 501.046 151.999 497.25 156.223 497.25C160.448 497.25 163.887 501.046 163.887 505.709C163.887 510.371 160.448 514.167 156.223 514.167Z" fill="#28AF8F"/>
<path d="M130.56 140.992H130.415H130.349C122.415 141.131 115.959 148.372 115.959 157.122C115.959 162.003 118.052 167.358 122.171 173.055C122.402 173.376 122.639 173.696 122.884 174.017C122.897 174.031 122.903 174.046 122.917 174.061C123.379 174.665 123.867 175.285 124.375 175.897C124.573 176.137 124.771 176.377 124.976 176.61C125.035 176.683 125.095 176.749 125.161 176.822C127.28 179.277 129.26 181.178 130.454 182.264C131.656 181.171 133.656 179.255 135.794 176.778C135.841 176.727 135.887 176.669 135.933 176.618C136.151 176.363 136.369 176.108 136.58 175.846C137.068 175.255 137.544 174.658 137.992 174.068C138.012 174.046 138.025 174.024 138.045 174.002C138.289 173.682 138.527 173.361 138.758 173.033C142.864 167.344 144.949 161.996 144.949 157.122C144.943 148.372 138.494 141.131 130.56 140.992ZM130.454 164.568C126.23 164.568 122.791 160.772 122.791 156.11C122.791 151.447 126.23 147.651 130.454 147.651C134.679 147.651 138.118 151.447 138.118 156.11C138.118 160.772 134.679 164.568 130.454 164.568Z" fill="#28AF8F"/>
<path d="M228.267 85.2932H228.122H228.056C220.122 85.4316 213.667 92.6733 213.667 101.423C213.667 106.304 215.759 111.659 219.878 117.356C220.109 117.677 220.346 117.997 220.591 118.318C220.604 118.332 220.61 118.347 220.624 118.361C221.086 118.966 221.574 119.585 222.082 120.197C222.28 120.438 222.478 120.678 222.683 120.911C222.742 120.984 222.802 121.05 222.868 121.123C224.987 123.578 226.967 125.479 228.161 126.565C229.363 125.472 231.363 123.556 233.501 121.079C233.548 121.028 233.594 120.97 233.64 120.919C233.858 120.664 234.076 120.409 234.287 120.146C234.775 119.556 235.251 118.959 235.699 118.369C235.719 118.347 235.732 118.325 235.752 118.303C235.996 117.983 236.234 117.662 236.465 117.334C240.571 111.644 242.656 106.297 242.656 101.423C242.65 92.6733 236.201 85.4316 228.267 85.2932ZM228.161 108.869C223.937 108.869 220.498 105.073 220.498 100.41C220.498 95.7477 223.937 91.952 228.161 91.952C232.386 91.952 235.825 95.7477 235.825 100.41C235.825 105.073 232.386 108.869 228.161 108.869Z" fill="#28AF8F"/>
<path d="M342.08 140.992H341.934H341.868C333.934 141.131 327.479 148.372 327.479 157.122C327.479 162.003 329.571 167.358 333.69 173.055C333.921 173.376 334.159 173.696 334.403 174.017C334.416 174.031 334.423 174.046 334.436 174.061C334.898 174.665 335.387 175.285 335.895 175.897C336.093 176.137 336.291 176.377 336.495 176.61C336.555 176.683 336.614 176.749 336.68 176.822C338.799 179.277 340.779 181.178 341.974 182.264C343.175 181.171 345.175 179.255 347.314 176.778C347.36 176.727 347.406 176.669 347.453 176.618C347.67 176.363 347.888 176.108 348.099 175.846C348.588 175.255 349.063 174.658 349.512 174.068C349.532 174.046 349.545 174.024 349.565 174.002C349.809 173.682 350.047 173.361 350.278 173.033C354.383 167.344 356.469 161.996 356.469 157.122C356.462 148.372 350.014 141.131 342.08 140.992ZM341.974 164.568C337.75 164.568 334.311 160.772 334.311 156.11C334.311 151.447 337.75 147.651 341.974 147.651C346.198 147.651 349.637 151.447 349.637 156.11C349.637 160.772 346.198 164.568 341.974 164.568Z" fill="#28AF8F"/>
<path d="M305.574 129.142H305.429H305.363C297.429 129.28 290.973 136.522 290.973 145.271C290.973 150.153 293.066 155.507 297.184 161.204C297.415 161.525 297.653 161.846 297.897 162.166C297.91 162.181 297.917 162.195 297.93 162.21C298.392 162.814 298.881 163.434 299.389 164.046C299.587 164.286 299.785 164.527 299.99 164.76C300.049 164.833 300.108 164.898 300.174 164.971C302.293 167.426 304.273 169.328 305.468 170.413C306.669 169.32 308.669 167.404 310.808 164.927C310.854 164.876 310.9 164.818 310.947 164.767C311.164 164.512 311.382 164.257 311.594 163.995C312.082 163.405 312.557 162.807 313.006 162.217C313.026 162.195 313.039 162.173 313.059 162.152C313.303 161.831 313.541 161.51 313.772 161.183C317.877 155.493 319.963 150.145 319.963 145.271C319.956 136.522 313.508 129.28 305.574 129.142ZM305.468 152.717C301.244 152.717 297.805 148.921 297.805 144.259C297.805 139.596 301.244 135.8 305.468 135.8C309.693 135.8 313.131 139.596 313.131 144.259C313.131 148.921 309.693 152.717 305.468 152.717Z" fill="#587CCD"/>
<path d="M39.2954 305.719H39.1502H39.0842C31.1502 305.857 24.6948 313.099 24.6948 321.849C24.6948 326.73 26.7872 332.084 30.906 337.782C31.137 338.102 31.3747 338.423 31.6189 338.743C31.6321 338.758 31.6387 338.772 31.6519 338.787C32.1139 339.392 32.6024 340.011 33.1106 340.623C33.3086 340.863 33.5067 341.104 33.7113 341.337C33.7707 341.41 33.8301 341.475 33.8961 341.548C36.0149 344.003 37.9951 345.905 39.1898 346.99C40.3911 345.897 42.3911 343.981 44.5297 341.504C44.5759 341.453 44.6221 341.395 44.6683 341.344C44.8861 341.089 45.104 340.834 45.3152 340.572C45.8036 339.982 46.2789 339.384 46.7277 338.794C46.7475 338.772 46.7607 338.751 46.7805 338.729C47.0247 338.408 47.2624 338.088 47.4934 337.76C51.599 332.07 53.6848 326.722 53.6848 321.849C53.6782 313.099 47.2294 305.857 39.2954 305.719ZM39.1898 329.294C34.9654 329.294 31.5265 325.498 31.5265 320.836C31.5265 316.173 34.9654 312.378 39.1898 312.378C43.4142 312.378 46.8531 316.173 46.8531 320.836C46.8531 325.498 43.4142 329.294 39.1898 329.294Z" fill="#28AF8F"/>
<path d="M205.72 490.592H205.575H205.509C197.575 490.73 191.119 497.972 191.119 506.721C191.119 511.602 193.212 516.957 197.33 522.654C197.561 522.975 197.799 523.295 198.043 523.616C198.056 523.631 198.063 523.645 198.076 523.66C198.538 524.264 199.027 524.884 199.535 525.496C199.733 525.736 199.931 525.976 200.136 526.21C200.195 526.282 200.254 526.348 200.32 526.421C202.439 528.876 204.419 530.778 205.614 531.863C206.815 530.77 208.815 528.854 210.954 526.377C211 526.326 211.046 526.268 211.093 526.217C211.31 525.962 211.528 525.707 211.739 525.445C212.228 524.855 212.703 524.257 213.152 523.667C213.172 523.645 213.185 523.623 213.205 523.601C213.449 523.281 213.687 522.96 213.918 522.633C218.023 516.943 220.109 511.595 220.109 506.721C220.102 497.972 213.654 490.73 205.72 490.592ZM205.614 514.167C201.39 514.167 197.951 510.371 197.951 505.709C197.951 501.046 201.39 497.25 205.614 497.25C209.839 497.25 213.277 501.046 213.277 505.709C213.277 510.371 209.839 514.167 205.614 514.167Z" fill="#969696"/>
<path d="M39.2954 235.798H39.1502H39.0842C31.1502 235.937 24.6948 243.178 24.6948 251.928C24.6948 256.809 26.7872 262.164 30.906 267.861C31.137 268.182 31.3747 268.502 31.6189 268.823C31.6321 268.837 31.6387 268.852 31.6519 268.867C32.1139 269.471 32.6024 270.09 33.1106 270.702C33.3086 270.943 33.5067 271.183 33.7113 271.416C33.7707 271.489 33.8301 271.555 33.8961 271.628C36.0149 274.083 37.9951 275.984 39.1898 277.07C40.3911 275.977 42.3911 274.061 44.5297 271.584C44.5759 271.533 44.6221 271.475 44.6683 271.424C44.8861 271.169 45.104 270.914 45.3152 270.651C45.8036 270.061 46.2789 269.464 46.7277 268.874C46.7475 268.852 46.7607 268.83 46.7805 268.808C47.0247 268.488 47.2624 268.167 47.4934 267.839C51.599 262.149 53.6848 256.802 53.6848 251.928C53.6782 243.178 47.2294 235.937 39.2954 235.798ZM39.1898 259.374C34.9654 259.374 31.5265 255.578 31.5265 250.915C31.5265 246.253 34.9654 242.457 39.1898 242.457C43.4142 242.457 46.8531 246.253 46.8531 250.915C46.8531 255.578 43.4142 259.374 39.1898 259.374Z" fill="#969696"/>
<path d="M103.718 270.166H103.573H103.507C95.5726 270.304 89.1172 277.546 89.1172 286.296C89.1172 291.177 91.2096 296.532 95.3284 302.229C95.5594 302.549 95.797 302.87 96.0412 303.19C96.0544 303.205 96.061 303.22 96.0742 303.234C96.5363 303.839 97.0247 304.458 97.533 305.07C97.731 305.311 97.929 305.551 98.1336 305.784C98.193 305.857 98.2525 305.922 98.3185 305.995C100.437 308.451 102.417 310.352 103.612 311.438C104.813 310.345 106.813 308.429 108.952 305.952C108.998 305.901 109.044 305.842 109.091 305.791C109.309 305.536 109.526 305.281 109.738 305.019C110.226 304.429 110.701 303.832 111.15 303.241C111.17 303.22 111.183 303.198 111.203 303.176C111.447 302.855 111.685 302.535 111.916 302.207C116.021 296.517 118.107 291.17 118.107 286.296C118.101 277.546 111.652 270.304 103.718 270.166ZM103.612 293.741C99.3878 293.741 95.9488 289.946 95.9488 285.283C95.9488 280.62 99.3878 276.825 103.612 276.825C107.837 276.825 111.275 280.62 111.275 285.283C111.275 289.946 107.837 293.741 103.612 293.741Z" fill="#969696"/>
<path d="M451.14 746.154V744.474H442.628V743.144H452.666V745.986C452.666 747.232 452.568 748.492 452.372 749.416H450.86C451.07 748.478 451.14 747.232 451.14 746.154ZM442.054 751.866V750.522H453.324V751.866H448.424V755.898H446.912V751.866H442.054ZM465.322 745.118H461.234C461.626 746.28 463.67 747.106 465.448 747.218V748.492C463.432 748.38 461.43 747.568 460.422 746.448C459.4 747.582 457.398 748.38 455.368 748.492V747.218C457.16 747.134 459.19 746.28 459.582 745.118H455.55V743.844H459.652V742.542H461.164V743.844H465.322V745.118ZM454.71 750.69V749.388H466.148V750.69H461.192V752.16H465.322V755.898H463.796V753.448H455.466V752.16H459.666V750.69H454.71ZM474.673 744.446H469.619V746.546H474.743V747.848H472.167V749.584H474.183C475.317 749.584 476.143 749.374 476.605 749.052V742.99H478.131V752.286H476.605V750.298C476.087 750.718 475.219 750.914 473.791 750.914H467.421V749.584H470.655V747.848H468.121V743.144H474.673V744.446ZM478.355 755.814H468.639V751.992H470.165V754.498H478.355V755.814ZM487.189 751.67C486.629 753.126 485.145 754.302 483.521 754.834V753.434C485.047 752.734 486.433 751.446 486.433 747.904V743.144H487.945V747.904C487.945 751.446 489.331 752.72 490.843 753.434V754.834C489.247 754.288 487.763 753.112 487.189 751.67ZM494.217 742.99V755.688H492.691V742.99H494.217ZM502.014 747.358C501.16 748.842 499.368 750.242 496.596 750.774V749.416C499.494 748.758 501.244 746.952 501.244 744.18V743.144H502.756V744.18C502.756 746.952 504.548 748.758 507.432 749.416V750.774C504.674 750.242 502.868 748.842 502.014 747.358ZM496.386 755.128V753.812H507.656V755.128H496.386ZM512.794 750.144H509.392V743.144H514.026V744.39H510.862V746H513.718V747.232H510.862V748.912H512.864C513.578 748.912 514.278 748.856 514.866 748.688V749.85C514.278 750.046 513.55 750.144 512.794 750.144ZM514.32 747.274V745.944H515.748V743.074H517.176V750.522H515.748V747.274H514.32ZM518.436 750.606V742.99H519.906V750.606H518.436ZM510.302 755.814V751.334H519.906V755.814H510.302ZM518.394 752.636H511.828V754.526H518.394V752.636ZM525.757 745.58C525.757 744.838 526.051 744.264 526.597 743.872C527.507 743.186 529.075 742.976 530.895 742.976C532.715 742.976 534.269 743.186 535.179 743.872C535.725 744.264 536.019 744.838 536.019 745.58C536.019 746.336 535.725 746.91 535.179 747.302C534.269 747.988 532.715 748.198 530.895 748.198C529.075 748.198 527.507 747.988 526.597 747.302C526.051 746.91 525.757 746.336 525.757 745.58ZM527.283 745.58C527.283 745.93 527.437 746.182 527.731 746.392C528.291 746.784 529.369 746.924 530.895 746.924C532.407 746.924 533.485 746.784 534.045 746.392C534.339 746.182 534.507 745.93 534.507 745.58C534.507 745.244 534.339 744.992 534.045 744.782C533.485 744.404 532.407 744.25 530.895 744.25C529.369 744.25 528.291 744.404 527.731 744.782C527.437 744.992 527.283 745.244 527.283 745.58ZM525.155 750.718V749.402H536.593V750.718H531.777V753.07H530.265V750.718H525.155ZM527.507 752.048V754.428H535.991V755.744H525.995V752.048H527.507ZM538.147 746.266C538.147 745.132 538.525 744.25 539.183 743.662C539.757 743.172 540.527 742.906 541.465 742.906C542.389 742.906 543.173 743.172 543.719 743.662C543.901 743.83 544.069 744.012 544.209 744.222H547.051V742.99H548.577V750.354H547.051V748.338H544.181C544.055 748.534 543.901 748.702 543.719 748.856C543.173 749.346 542.389 749.612 541.465 749.612C540.527 749.612 539.757 749.346 539.183 748.856C538.525 748.268 538.147 747.4 538.147 746.266ZM544.699 745.51C544.741 745.748 544.755 746 544.755 746.266C544.755 746.546 544.727 746.798 544.685 747.05H547.051V745.51H544.699ZM539.631 746.266C539.631 746.952 539.827 747.47 540.191 747.834C540.499 748.142 540.933 748.31 541.465 748.31C541.969 748.31 542.403 748.142 542.725 747.834C543.075 747.47 543.271 746.952 543.271 746.266C543.271 745.566 543.075 745.048 542.725 744.684C542.403 744.39 541.969 744.222 541.465 744.222C540.933 744.222 540.499 744.39 540.191 744.684C539.827 745.048 539.631 745.566 539.631 746.266ZM543.887 755.982C542.431 755.982 540.989 755.786 540.023 755.184C539.351 754.764 538.917 754.134 538.917 753.28C538.917 752.426 539.351 751.796 540.023 751.376C540.989 750.788 542.431 750.578 543.887 750.578C545.343 750.578 546.799 750.788 547.751 751.376C548.423 751.796 548.871 752.426 548.871 753.28C548.871 754.134 548.423 754.764 547.751 755.184C546.799 755.786 545.343 755.982 543.887 755.982ZM543.887 751.88C542.739 751.88 541.619 752.02 540.975 752.412C540.639 752.636 540.429 752.916 540.429 753.28C540.429 753.644 540.639 753.924 540.975 754.134C541.619 754.526 542.739 754.68 543.887 754.68C545.049 754.68 546.169 754.526 546.799 754.134C547.135 753.924 547.345 753.644 547.345 753.28C547.345 752.916 547.135 752.636 546.799 752.412C546.169 752.02 545.049 751.88 543.887 751.88ZM557.774 745.258H550.606V743.998H553.504V742.626H555.016V743.998H557.774V745.258ZM552.454 748.66C552.454 749.052 552.622 749.374 552.902 749.598C553.224 749.864 553.714 750.004 554.232 750.004C554.708 750.004 555.142 749.864 555.478 749.64C555.786 749.416 555.996 749.094 555.996 748.66C555.996 748.268 555.842 747.946 555.548 747.708C555.226 747.442 554.736 747.288 554.232 747.288C553.728 747.288 553.266 747.442 552.93 747.694C552.636 747.932 552.454 748.254 552.454 748.66ZM550.984 748.66C550.984 747.834 551.348 747.176 551.936 746.728C552.524 746.294 553.336 746.07 554.232 746.07C555.114 746.07 555.898 746.294 556.458 746.7C557.088 747.148 557.466 747.82 557.466 748.66C557.466 749.514 557.074 750.2 556.402 750.648C555.856 751.026 555.1 751.236 554.232 751.236C553.35 751.236 552.566 751.012 552.006 750.62C551.362 750.172 550.984 749.514 550.984 748.66ZM557.816 747.33V746.056H559.79V742.99H561.316V752.188H559.79V750.074H557.816V748.828H559.79V747.33H557.816ZM561.54 755.744H551.824V751.992H553.35V754.428H561.54V755.744ZM566.412 742.626H567.952V743.732H570.808V744.894H563.542V743.732H566.412V742.626ZM565.278 747.26C565.278 747.456 565.404 747.624 565.614 747.722C565.936 747.89 566.482 747.974 567.168 747.974C567.882 747.974 568.442 747.876 568.75 747.694C568.932 747.596 569.044 747.442 569.044 747.26C569.044 747.078 568.932 746.938 568.75 746.826C568.442 746.63 567.882 746.546 567.168 746.546C566.482 746.546 565.936 746.616 565.614 746.798C565.404 746.924 565.278 747.064 565.278 747.26ZM563.836 747.26C563.836 746.714 564.116 746.308 564.564 746.014C565.18 745.636 566.118 745.468 567.168 745.468C568.176 745.468 569.058 745.636 569.674 745.972C570.164 746.266 570.472 746.672 570.472 747.26C570.472 747.834 570.178 748.268 569.688 748.548C569.24 748.814 568.638 748.968 567.938 749.038V749.906H569.786C570.92 749.906 571.718 749.71 572.194 749.388V742.99H573.72V746.644H575.582V747.974H573.72V751.614H572.194V750.508C571.676 750.914 570.794 751.11 569.38 751.11H563.36V749.906H566.412V749.038C565.698 748.968 565.082 748.814 564.634 748.548C564.144 748.268 563.836 747.848 563.836 747.26ZM564.186 753.91C564.186 753.294 564.508 752.846 565.04 752.538C565.908 752.006 567.378 751.852 569.114 751.852C570.836 751.852 572.32 752.006 573.188 752.538C573.72 752.846 574.028 753.294 574.028 753.91C574.028 754.54 573.72 754.988 573.188 755.31C572.32 755.814 570.836 755.982 569.114 755.982C567.378 755.982 565.908 755.814 565.04 755.31C564.508 754.988 564.186 754.54 564.186 753.91ZM565.712 753.91C565.712 754.106 565.838 754.26 566.048 754.372C566.58 754.68 567.728 754.778 569.114 754.778C570.5 754.778 571.634 754.68 572.166 754.372C572.376 754.26 572.502 754.106 572.502 753.91C572.502 753.728 572.376 753.588 572.166 753.462C571.634 753.168 570.5 753.056 569.114 753.056C567.728 753.056 566.58 753.168 566.048 753.462C565.838 753.588 565.712 753.728 565.712 753.91Z" fill="#444444"/>
<path d="M479.81 788.274H474.798V786.118H478.718V785.054H471.242V783.29H478.438V779.454H469.926V780.518H477.15V782.226H469.954V786.118H473.51V788.274H468.582V789.366H479.81V788.274ZM486.366 779.174H480.906V780.182H484.98C484.938 780.546 484.868 780.896 484.742 781.232L480.29 781.442L480.486 782.45L484.224 782.156C483.51 783.094 482.25 783.822 480.29 784.298L480.766 785.306C484.616 784.34 486.352 782.31 486.366 779.174ZM482.194 786.426H488.914V787.518H482.222V790.682H490.566V789.646H483.482V788.47H490.202V785.39H482.194V786.426ZM486.394 782.478H488.914V784.886H490.202V778.586H488.914V781.442H486.394V782.478ZM501.545 779.23H492.417V780.294H494.209V783.458H492.473V784.494H501.461V783.458H499.725V780.294H501.545V779.23ZM491.381 786.874H496.309V790.822H497.597V786.874H502.581V785.782H491.381V786.874ZM495.497 783.458V780.294H498.465V783.458H495.497ZM512.721 784.41H505.469V780.742H512.609V779.678H504.181V785.446H512.721V784.41ZM502.781 789.226H514.009V788.134H502.781V789.226ZM518.717 780.77V780.434H521.405V779.398H514.657V780.434H517.401V780.77C517.401 782.45 516.225 784.046 514.321 784.718L514.993 785.698C516.449 785.194 517.541 784.144 518.087 782.814C518.647 784.032 519.711 785.012 521.125 785.474L521.797 784.466C519.893 783.864 518.717 782.366 518.717 780.77ZM516.057 787.658H523.057V790.822H524.345V786.594H516.057V787.658ZM523.057 785.978H524.345V778.586H523.057V785.978ZM536.108 778.586H534.876V783.374H533.364V778.81H532.132V790.234H533.364V784.438H534.876V790.822H536.108V778.586ZM526 787.602H530.76V779.958H526V787.602ZM527.232 786.566V780.994H529.528V786.566H527.232ZM541.264 780.854V780.518H543.896V779.454H537.26V780.518H539.976V780.854C539.948 782.548 538.8 784.144 536.896 784.774L537.54 785.81C539.024 785.292 540.102 784.228 540.634 782.884C541.166 784.06 542.188 784.984 543.588 785.418L544.204 784.41C542.342 783.822 541.264 782.394 541.264 780.854ZM538.548 788.526C538.548 789.968 540.102 790.822 542.664 790.822C545.184 790.822 546.724 789.968 546.724 788.526C546.724 787.07 545.184 786.23 542.664 786.23C540.102 786.23 538.548 787.07 538.548 788.526ZM539.836 788.526C539.836 787.714 540.886 787.266 542.664 787.266C544.414 787.266 545.45 787.714 545.464 788.526C545.45 789.338 544.414 789.786 542.664 789.786C540.886 789.786 539.836 789.338 539.836 788.526ZM545.324 785.95H546.612V782.702H548.376V781.61H546.612V778.586H545.324V785.95ZM549.248 785.558C549.248 787.994 549.892 790.01 551.124 791.746H552.468C551.502 790.458 550.76 787.868 550.76 785.558C550.76 783.276 551.502 780.686 552.468 779.398H551.124C549.892 781.12 549.248 783.15 549.248 785.558ZM563.897 784.718H552.697V785.782H557.737V788.162H559.053V785.782H563.897V784.718ZM553.929 781.358C553.915 782.884 555.651 783.836 558.269 783.822C560.915 783.836 562.637 782.884 562.637 781.358C562.637 779.832 560.915 778.88 558.269 778.866C555.651 778.88 553.915 779.832 553.929 781.358ZM554.097 790.57H562.665V789.506H555.385V786.986H554.097V790.57ZM555.301 781.358C555.301 780.448 556.491 779.916 558.269 779.93C560.075 779.916 561.251 780.448 561.265 781.358C561.251 782.24 560.075 782.786 558.269 782.786C556.491 782.786 555.301 782.24 555.301 781.358ZM567.485 779.286C565.651 779.286 564.279 780.504 564.293 782.226C564.279 783.948 565.651 785.166 567.485 785.166C568.493 785.166 569.361 784.788 569.935 784.158H573.029V785.81H574.317V778.586H573.029V780.294H569.935C569.361 779.664 568.493 779.286 567.485 779.286ZM565.525 782.226C565.511 781.134 566.337 780.406 567.485 780.406C568.605 780.406 569.431 781.134 569.445 782.226C569.431 783.304 568.605 784.06 567.485 784.046C566.337 784.06 565.511 783.304 565.525 782.226ZM566.057 788.442C566.057 789.94 567.653 790.822 570.201 790.822C572.763 790.822 574.345 789.94 574.345 788.442C574.345 786.958 572.763 786.09 570.201 786.09C567.653 786.09 566.057 786.958 566.057 788.442ZM567.345 788.442C567.331 787.588 568.409 787.098 570.201 787.098C572.007 787.098 573.085 787.588 573.085 788.442C573.085 789.296 572.007 789.786 570.201 789.786C568.409 789.786 567.331 789.296 567.345 788.442ZM570.551 783.094C570.635 782.828 570.677 782.534 570.677 782.226C570.677 781.918 570.635 781.624 570.551 781.358H573.029V783.094H570.551ZM586.668 784.27H575.496V785.306H580.424V786.496C578.156 786.608 576.826 787.364 576.812 788.638C576.826 790.038 578.408 790.822 581.068 790.822C583.714 790.822 585.296 790.038 585.296 788.638C585.296 787.364 583.966 786.608 581.712 786.496V785.306H586.668V784.27ZM576.084 782.59L576.532 783.626C578.66 783.374 580.41 782.478 581.082 781.176C581.754 782.478 583.504 783.374 585.632 783.626L586.108 782.59C583.854 782.366 582.118 781.372 581.95 780.182H585.66V779.146H576.532V780.182H580.214C580.018 781.358 578.282 782.366 576.084 782.59ZM578.156 788.638C578.128 787.896 579.206 787.476 581.068 787.462C582.93 787.476 583.994 787.896 584.008 788.638C583.994 789.394 582.93 789.828 581.068 789.814C579.206 789.828 578.128 789.394 578.156 788.638ZM590.144 785.586C590.144 783.15 589.5 781.134 588.268 779.398H586.924C587.89 780.686 588.632 783.276 588.632 785.586C588.632 787.868 587.89 790.458 586.924 791.746H588.268C589.5 790.024 590.144 787.994 590.144 785.586ZM473.09 806.198V804.882H475.89V803.818H468.974V804.882H471.774V806.198C471.774 808.298 470.402 810.608 468.554 811.462L469.31 812.498C470.738 811.812 471.886 810.314 472.46 808.578C473.034 810.202 474.168 811.546 475.61 812.19L476.338 811.154C474.434 810.356 473.09 808.242 473.09 806.198ZM477.43 814.822H478.746V802.586H477.43V814.822ZM490.202 810.454H481.886V811.462H488.914V814.822H490.202V810.454ZM480.178 806.226C480.164 807.962 481.536 809.194 483.37 809.194C484.406 809.194 485.288 808.788 485.862 808.13H488.914V809.81H490.202V802.586H488.914V804.322H485.862C485.288 803.664 484.406 803.258 483.37 803.258C481.536 803.258 480.164 804.49 480.178 806.226ZM481.41 806.226C481.396 805.134 482.222 804.364 483.37 804.378C484.476 804.364 485.316 805.134 485.33 806.226C485.316 807.346 484.476 808.088 483.37 808.102C482.222 808.088 481.396 807.346 481.41 806.226ZM486.436 807.066C486.52 806.8 486.562 806.52 486.562 806.226C486.562 805.932 486.52 805.652 486.436 805.386H488.914V807.066H486.436ZM495.133 804.938V803.342H493.873V804.938C493.873 806.296 492.991 807.85 491.325 808.578L492.053 809.586C493.229 809.082 494.069 808.088 494.517 806.954C494.965 807.962 495.763 808.788 496.897 809.222L497.569 808.214C495.987 807.626 495.133 806.282 495.133 804.938ZM493.565 812.582C493.565 813.982 495.161 814.822 497.737 814.822C500.285 814.822 501.895 813.982 501.881 812.582C501.895 811.196 500.285 810.37 497.737 810.37C495.161 810.37 493.565 811.196 493.565 812.582ZM494.881 812.582C494.853 811.812 495.945 811.364 497.737 811.35C499.501 811.364 500.593 811.812 500.593 812.582C500.593 813.38 499.501 813.828 497.737 813.814C495.945 813.828 494.853 813.38 494.881 812.582ZM497.961 809.754H499.165V806.842H500.593V810.146H501.825V802.586H500.593V805.778H499.165V802.81H497.961V809.754ZM507.037 804.826V803.342H505.749V804.798C505.749 806.618 504.629 808.27 502.697 808.914L503.397 809.95C504.839 809.418 505.903 808.354 506.435 806.982C506.981 808.214 507.989 809.18 509.361 809.67L510.033 808.634C508.185 808.018 507.037 806.464 507.037 804.826ZM504.657 814.57H512.945V813.534H505.973V810.734H504.657V814.57ZM511.125 811.602H512.413V807.374H514.177V806.254H512.413V802.586H511.125V811.602ZM525.353 808.438H514.181V809.502H519.109V810.818H515.525V814.682H523.981V810.818H520.397V809.502H525.353V808.438ZM515.217 804.014H517.009V806.366H515.273V807.402H524.261V806.366H522.525V804.014H524.317V802.95H515.217V804.014ZM516.813 813.618V811.826H522.721V813.618H516.813ZM518.297 806.366V804.014H521.237V806.366H518.297ZM532.33 803.146C530.482 803.146 529.152 804.168 529.166 805.694C529.152 807.192 530.482 808.228 532.33 808.214C534.164 808.228 535.494 807.192 535.494 805.694C535.494 804.168 534.164 803.146 532.33 803.146ZM528.298 809.166L528.466 810.258C529.432 810.258 530.552 810.244 531.742 810.188V814.458H533.058V810.118C534.178 810.034 535.34 809.908 536.446 809.698L536.362 808.718C533.674 809.124 530.552 809.18 528.298 809.166ZM530.426 805.694C530.412 804.798 531.21 804.196 532.33 804.21C533.464 804.196 534.262 804.798 534.262 805.694C534.262 806.576 533.464 807.164 532.33 807.15C531.21 807.164 530.412 806.576 530.426 805.694ZM537.202 814.85H538.49V802.586H537.202V814.85ZM545.914 803.426H540.23V809.39H541.182C543.716 809.404 545.144 809.348 546.838 809.054L546.67 808.018C545.13 808.284 543.8 808.354 541.546 808.354V806.87H545.69V805.862H541.546V804.462H545.914V803.426ZM541.238 811.63H548.042V814.822H549.33V810.566H541.238V811.63ZM548.042 810.006H549.33V806.842H551.094V805.75H549.33V802.586H548.042V810.006ZM558.042 803.706H551.434V804.742H552.61V808.76L551.098 808.774L551.238 809.838C553.352 809.838 556.208 809.782 558.686 809.39L558.574 808.41C558.042 808.48 557.468 808.536 556.894 808.578V804.742H558.042V803.706ZM552.974 814.57H561.262V813.534H554.262V810.762H552.974V814.57ZM553.87 808.732V804.742H555.634V808.662C555.046 808.69 554.444 808.718 553.87 808.732ZM559.442 811.602H560.73V807.318H562.494V806.226H560.73V802.586H559.442V811.602ZM573.025 802.586H571.793V807.374H570.281V802.81H569.049V814.234H570.281V808.438H571.793V814.822H573.025V802.586ZM562.917 811.602H567.677V803.958H562.917V811.602ZM564.149 810.566V804.994H566.445V810.566H564.149ZM578.181 804.854V804.518H580.813V803.454H574.177V804.518H576.893V804.854C576.865 806.548 575.717 808.144 573.813 808.774L574.457 809.81C575.941 809.292 577.019 808.228 577.551 806.884C578.083 808.06 579.105 808.984 580.505 809.418L581.121 808.41C579.259 807.822 578.181 806.394 578.181 804.854ZM575.465 812.526C575.465 813.968 577.019 814.822 579.581 814.822C582.101 814.822 583.641 813.968 583.641 812.526C583.641 811.07 582.101 810.23 579.581 810.23C577.019 810.23 575.465 811.07 575.465 812.526ZM576.753 812.526C576.753 811.714 577.803 811.266 579.581 811.266C581.331 811.266 582.367 811.714 582.381 812.526C582.367 813.338 581.331 813.786 579.581 813.786C577.803 813.786 576.753 813.338 576.753 812.526ZM582.241 809.95H583.529V806.702H585.293V805.61H583.529V802.586H582.241V809.95ZM586.164 809.558C586.164 811.994 586.808 814.01 588.04 815.746H589.384C588.418 814.458 587.676 811.868 587.676 809.558C587.676 807.276 588.418 804.686 589.384 803.398H588.04C586.808 805.12 586.164 807.15 586.164 809.558ZM600.814 808.718H589.614V809.782H594.654V812.162H595.97V809.782H600.814V808.718ZM590.846 805.358C590.832 806.884 592.568 807.836 595.186 807.822C597.832 807.836 599.554 806.884 599.554 805.358C599.554 803.832 597.832 802.88 595.186 802.866C592.568 802.88 590.832 803.832 590.846 805.358ZM591.014 814.57H599.582V813.506H592.302V810.986H591.014V814.57ZM592.218 805.358C592.218 804.448 593.408 803.916 595.186 803.93C596.992 803.916 598.168 804.448 598.182 805.358C598.168 806.24 596.992 806.786 595.186 806.786C593.408 806.786 592.218 806.24 592.218 805.358ZM604.402 803.286C602.568 803.286 601.196 804.504 601.21 806.226C601.196 807.948 602.568 809.166 604.402 809.166C605.41 809.166 606.278 808.788 606.852 808.158H609.946V809.81H611.234V802.586H609.946V804.294H606.852C606.278 803.664 605.41 803.286 604.402 803.286ZM602.442 806.226C602.428 805.134 603.254 804.406 604.402 804.406C605.522 804.406 606.348 805.134 606.362 806.226C606.348 807.304 605.522 808.06 604.402 808.046C603.254 808.06 602.428 807.304 602.442 806.226ZM602.974 812.442C602.974 813.94 604.57 814.822 607.118 814.822C609.68 814.822 611.262 813.94 611.262 812.442C611.262 810.958 609.68 810.09 607.118 810.09C604.57 810.09 602.974 810.958 602.974 812.442ZM604.262 812.442C604.248 811.588 605.326 811.098 607.118 811.098C608.924 811.098 610.002 811.588 610.002 812.442C610.002 813.296 608.924 813.786 607.118 813.786C605.326 813.786 604.248 813.296 604.262 812.442ZM607.468 807.094C607.552 806.828 607.594 806.534 607.594 806.226C607.594 805.918 607.552 805.624 607.468 805.358H609.946V807.094H607.468ZM623.585 808.27H612.413V809.306H617.341V810.496C615.073 810.608 613.743 811.364 613.729 812.638C613.743 814.038 615.325 814.822 617.985 814.822C620.631 814.822 622.213 814.038 622.213 812.638C622.213 811.364 620.883 810.608 618.629 810.496V809.306H623.585V808.27ZM613.001 806.59L613.449 807.626C615.577 807.374 617.327 806.478 617.999 805.176C618.671 806.478 620.421 807.374 622.549 807.626L623.025 806.59C620.771 806.366 619.035 805.372 618.867 804.182H622.577V803.146H613.449V804.182H617.131C616.935 805.358 615.199 806.366 613.001 806.59ZM615.073 812.638C615.045 811.896 616.123 811.476 617.985 811.462C619.847 811.476 620.911 811.896 620.925 812.638C620.911 813.394 619.847 813.828 617.985 813.814C616.123 813.828 615.045 813.394 615.073 812.638ZM627.061 809.586C627.061 807.15 626.417 805.134 625.185 803.398H623.841C624.807 804.686 625.549 807.276 625.549 809.586C625.549 811.868 624.807 814.458 623.841 815.746H625.185C626.417 814.024 627.061 811.994 627.061 809.586ZM478.326 827.37H469.954V828.406H477.038V828.434C477.038 829.582 477.038 830.87 476.674 832.606H468.582V833.67H473.482V838.85H474.798V833.67H479.754V832.606H477.99C478.326 830.856 478.326 829.582 478.326 828.434V827.37ZM491.154 832.718H479.982V833.754H484.91V835.042H481.214V836.078H488.466V838.794H489.782V835.042H486.198V833.754H491.154V832.718ZM480.598 831.122L480.99 832.102C483.09 831.906 484.812 831.192 485.554 830.044C486.324 831.192 488.018 831.906 490.118 832.102L490.538 831.122C488.088 830.912 486.422 830.016 486.296 828.798H490.034V827.762H486.198V826.558H484.91V827.762H481.102V828.798H484.84C484.686 830.016 483.02 830.912 480.598 831.122ZM495.105 827.146C493.313 827.132 492.039 828.112 492.053 829.582C492.039 830.842 493.033 831.766 494.489 831.976V833.11C493.369 833.152 492.291 833.166 491.381 833.166L491.521 834.202C493.607 834.202 496.505 834.16 499.081 833.698L498.969 832.746C497.961 832.9 496.855 832.998 495.777 833.054V831.962C497.205 831.738 498.157 830.828 498.157 829.582C498.157 828.112 496.897 827.132 495.105 827.146ZM493.089 838.57H501.461V837.506H494.405V835.154H493.089V838.57ZM493.257 829.582C493.257 828.686 494.027 828.126 495.105 828.126C496.197 828.126 496.939 828.686 496.953 829.582C496.939 830.45 496.197 831.01 495.105 831.01C494.027 831.01 493.257 830.45 493.257 829.582ZM499.725 835.966H501.013V831.738H502.777V830.646H501.013V826.586H499.725V835.966ZM514.009 836.274H511.041V834.118H512.917V833.054H505.441V831.29H512.637V827.454H504.125V828.518H511.349V830.226H504.153V834.118H505.833V836.274H502.781V837.366H514.009V836.274ZM507.093 836.274V834.118H509.781V836.274H507.093Z" fill="#666666"/>
<rect x="435.923" y="779.784" width="21.474" height="14.221" fill="#28AF8F"/>
<rect x="435.923" y="808.227" width="21.474" height="14.221" fill="#587CCD"/>
<rect x="435.923" y="836.668" width="21.474" height="14.221" fill="#969696"/>
</svg>
