<svg width="1740" height="826" viewBox="0 0 1740 826" fill="none" xmlns="http://www.w3.org/2000/svg">
<rect width="1740" height="826" rx="55" fill="#DDE8F6"/>
<path d="M870 415.333C872.946 415.333 875.333 412.946 875.333 410C875.333 407.054 872.946 404.667 870 404.667C867.054 404.667 864.667 407.054 864.667 410C864.667 412.946 867.054 415.333 870 415.333ZM870.707 367.293C870.317 366.902 869.683 366.902 869.293 367.293L862.929 373.657C862.538 374.047 862.538 374.681 862.929 375.071C863.319 375.462 863.953 375.462 864.343 375.071L870 369.414L875.657 375.071C876.047 375.462 876.681 375.462 877.071 375.071C877.462 374.681 877.462 374.047 877.071 373.657L870.707 367.293ZM871 410L871 368L869 368L869 410L871 410Z" fill="#3598D4"/>
<mask id="mask0_181_5625" style="mask-type:alpha" maskUnits="userSpaceOnUse" x="830" y="421" width="80" height="80">
<rect x="830" y="421" width="80" height="80" fill="#D9D9D9"/>
</mask>
<g mask="url(#mask0_181_5625)">
<path d="M854.662 445.917C853.943 445.917 853.333 446.169 852.833 446.672C852.333 447.176 852.083 447.787 852.083 448.506C852.083 449.225 852.335 449.834 852.838 450.334C853.342 450.834 853.953 451.084 854.672 451.084C855.391 451.084 856 450.832 856.5 450.329C857 449.826 857.25 449.215 857.25 448.496C857.25 447.777 856.999 447.167 856.495 446.667C855.992 446.167 855.381 445.917 854.662 445.917ZM854.662 474.251C853.943 474.251 853.333 474.502 852.833 475.006C852.333 475.509 852.083 476.12 852.083 476.839C852.083 477.558 852.335 478.167 852.838 478.667C853.342 479.167 853.953 479.417 854.672 479.417C855.391 479.417 856 479.166 856.5 478.662C857 478.159 857.25 477.548 857.25 476.829C857.25 476.11 856.999 475.501 856.495 475.001C855.992 474.501 855.381 474.251 854.662 474.251ZM846.5 438.001H893.515C894.111 438.001 894.618 438.208 895.038 438.624C895.457 439.039 895.667 439.583 895.667 440.256V456.084C895.667 456.997 895.457 457.711 895.038 458.227C894.618 458.743 894.111 459.001 893.515 459.001H846.5C845.895 459.001 845.382 458.743 844.963 458.227C844.543 457.711 844.333 456.997 844.333 456.084V440.256C844.333 439.583 844.543 439.039 844.963 438.624C845.382 438.208 845.895 438.001 846.5 438.001ZM846.167 439.834V457.167H893.834V439.834H846.167ZM846.5 466.334H893.167C893.889 466.334 894.486 466.609 894.959 467.16C895.431 467.711 895.667 468.325 895.667 469.003V484.334C895.667 485.279 895.431 486.015 894.959 486.542C894.486 487.07 893.889 487.334 893.167 487.334H846.833C846.056 487.334 845.445 487.07 845 486.542C844.556 486.015 844.333 485.279 844.333 484.334V469.003C844.333 468.325 844.514 467.711 844.875 467.16C845.236 466.609 845.778 466.334 846.5 466.334ZM846.167 468.167V485.501H893.834V468.167H846.167Z" fill="#424242"/>
</g>
<mask id="mask1_181_5625" style="mask-type:alpha" maskUnits="userSpaceOnUse" x="840" y="507" width="60" height="60">
<rect width="60" height="60" transform="matrix(1 0 0 -1 840 567)" fill="#D9D9D9"/>
</mask>
<g mask="url(#mask1_181_5625)">
<path d="M856.183 528.625L853.625 531.212C855.795 533.382 858.296 535.081 861.127 536.311C863.959 537.54 867.019 538.154 870.308 538.154C873.596 538.154 876.656 537.537 879.488 536.303C882.32 535.069 884.82 533.363 886.99 531.183L884.433 528.625C882.599 530.459 880.474 531.896 878.058 532.938C875.641 533.98 873.058 534.5 870.308 534.5C867.558 534.5 864.974 533.98 862.558 532.938C860.141 531.896 858.016 530.459 856.183 528.625ZM845.558 539.25L843 541.808C846.481 545.308 850.543 548.074 855.188 550.106C859.832 552.138 864.872 553.154 870.308 553.154C875.744 553.154 880.784 552.138 885.428 550.106C890.072 548.074 894.135 545.308 897.615 541.808L895.058 539.25C891.849 542.459 888.131 544.969 883.901 546.782C879.672 548.594 875.141 549.5 870.308 549.5C865.474 549.5 860.943 548.594 856.714 546.782C852.485 544.969 848.766 542.459 845.558 539.25ZM870.308 514.5L876.428 520.635C875.623 521.44 874.704 522.061 873.668 522.498C872.633 522.936 871.513 523.154 870.308 523.154C869.103 523.154 867.982 522.936 866.947 522.498C865.912 522.061 864.992 521.44 864.188 520.635L870.308 514.5Z" fill="#3598D4"/>
</g>
<circle cx="660" cy="656" r="65" fill="#3598D4"/>
<circle cx="870" cy="656" r="65" fill="#3598D4"/>
<circle cx="1080" cy="656" r="65" fill="#3598D4"/>
<mask id="mask2_181_5625" style="mask-type:alpha" maskUnits="userSpaceOnUse" x="630" y="606" width="60" height="60">
<rect x="630" y="606" width="60" height="60" fill="#D9D9D9"/>
</mask>
<g mask="url(#mask2_181_5625)">
<path d="M635.385 654.654C635.111 654.654 634.882 654.561 634.699 654.375C634.515 654.189 634.423 653.958 634.423 653.68C634.423 653.403 634.515 653.175 634.699 652.997C634.882 652.819 635.111 652.731 635.385 652.731H684.616C684.89 652.731 685.118 652.823 685.302 653.009C685.485 653.195 685.577 653.427 685.577 653.704C685.577 653.981 685.485 654.209 685.302 654.387C685.118 654.565 684.89 654.654 684.616 654.654H635.385ZM640.962 649.654C640.001 649.654 639.184 649.317 638.51 648.643C637.837 647.97 637.5 647.153 637.5 646.192V620.615C637.5 619.654 637.837 618.837 638.51 618.164C639.184 617.49 640.001 617.154 640.962 617.154H679.039C679.999 617.154 680.817 617.49 681.49 618.164C682.164 618.837 682.5 619.654 682.5 620.615V646.192C682.5 647.153 682.164 647.97 681.49 648.643C680.817 649.317 679.999 649.654 679.039 649.654H640.962ZM640.962 647.731H679.039C679.423 647.731 679.776 647.57 680.096 647.25C680.417 646.929 680.577 646.577 680.577 646.192V620.615C680.577 620.231 680.417 619.878 680.096 619.557C679.776 619.237 679.423 619.077 679.039 619.077H640.962C640.577 619.077 640.225 619.237 639.904 619.557C639.584 619.878 639.423 620.231 639.423 620.615V646.192C639.423 646.577 639.584 646.929 639.904 647.25C640.225 647.57 640.577 647.731 640.962 647.731Z" fill="white"/>
</g>
<path d="M638.95 677.776H635.446V688.112H633.782V677.776H630.262V676.336H638.95V677.776ZM650.787 688.112H648.995L647.683 684.896H642.291L640.947 688.112H639.139L644.051 676.336H645.971L650.787 688.112ZM647.075 683.456L645.011 678.384L642.883 683.456H647.075ZM652.567 676.336H657.271C657.9 676.336 658.46 676.475 658.951 676.752C659.441 677.019 659.82 677.397 660.087 677.888C660.364 678.368 660.503 678.917 660.503 679.536C660.503 679.92 660.407 680.32 660.215 680.736C660.023 681.141 659.772 681.493 659.463 681.792C659.495 681.813 659.532 681.84 659.575 681.872C659.628 681.893 659.681 681.925 659.735 681.968C660.183 682.256 660.545 682.661 660.823 683.184C661.111 683.707 661.255 684.235 661.255 684.768C661.255 685.419 661.116 686 660.839 686.512C660.561 687.013 660.177 687.408 659.687 687.696C659.196 687.973 658.636 688.112 658.007 688.112H652.567V676.336ZM657.847 686.672C658.369 686.672 658.791 686.496 659.111 686.144C659.441 685.792 659.607 685.339 659.607 684.784C659.607 684.187 659.441 683.701 659.111 683.328C658.791 682.955 658.369 682.768 657.847 682.768H654.231V686.672H657.847ZM657.319 681.312C657.777 681.301 658.151 681.141 658.439 680.832C658.727 680.512 658.871 680.107 658.871 679.616C658.871 679.072 658.711 678.629 658.391 678.288C658.081 677.947 657.665 677.776 657.143 677.776H654.231V681.312H657.319ZM664.809 686.672H670.649V688.112H663.145V676.336H664.809V686.672ZM680.631 677.776H674.055V681.328H679.799V682.768H674.055V686.672H680.631V688.112H672.391V676.336H680.631V677.776ZM690.732 677.776H687.228V688.112H685.564V677.776H682.044V676.336H690.732V677.776Z" fill="white"/>
<path d="M865.28 682.528C865.941 682.528 866.474 682.309 866.88 681.872C867.285 681.435 867.488 680.859 867.488 680.144C867.488 679.44 867.285 678.869 866.88 678.432C866.474 677.995 865.941 677.776 865.28 677.776H862.176L862.192 682.528H865.28ZM860.528 676.336H865.328C866.064 676.336 866.72 676.496 867.296 676.816C867.872 677.136 868.32 677.589 868.64 678.176C868.96 678.752 869.12 679.408 869.12 680.144C869.12 680.891 868.96 681.552 868.64 682.128C868.32 682.704 867.872 683.157 867.296 683.488C866.72 683.808 866.064 683.968 865.328 683.968H862.192V688.112H860.528V676.336ZM875.957 688.24C874.837 688.24 873.835 687.984 872.949 687.472C872.075 686.96 871.387 686.251 870.885 685.344C870.395 684.427 870.149 683.387 870.149 682.224C870.149 681.061 870.395 680.027 870.885 679.12C871.376 678.203 872.059 677.488 872.933 676.976C873.808 676.464 874.805 676.208 875.925 676.208C876.725 676.208 877.483 676.363 878.197 676.672C878.912 676.981 879.536 677.413 880.069 677.968L878.981 679.04C878.619 678.613 878.171 678.277 877.637 678.032C877.104 677.787 876.544 677.664 875.957 677.664C875.147 677.664 874.427 677.856 873.797 678.24C873.179 678.613 872.693 679.147 872.341 679.84C872 680.523 871.829 681.317 871.829 682.224C871.829 683.12 872 683.915 872.341 684.608C872.693 685.291 873.179 685.824 873.797 686.208C874.427 686.592 875.147 686.784 875.957 686.784C876.565 686.784 877.12 686.667 877.621 686.432C878.133 686.187 878.565 685.861 878.917 685.456L880.069 686.48C879.525 687.045 878.907 687.483 878.213 687.792C877.531 688.101 876.779 688.251 875.957 688.24Z" fill="white"/>
<path d="M1052.02 679.232V688.112H1050.36V676.336H1052.15L1056.44 683.28L1060.71 676.336H1062.52V688.112H1060.85V679.216L1056.44 686.128L1052.02 679.232ZM1070.38 686.784C1071.2 686.784 1071.93 686.592 1072.56 686.208C1073.2 685.824 1073.69 685.291 1074.05 684.608C1074.4 683.915 1074.57 683.12 1074.57 682.224C1074.57 681.328 1074.4 680.539 1074.05 679.856C1073.69 679.163 1073.2 678.624 1072.56 678.24C1071.93 677.856 1071.2 677.664 1070.38 677.664C1069.55 677.664 1068.81 677.856 1068.17 678.24C1067.54 678.613 1067.05 679.147 1066.7 679.84C1066.36 680.533 1066.19 681.328 1066.19 682.224C1066.19 683.12 1066.36 683.915 1066.7 684.608C1067.05 685.301 1067.54 685.84 1068.17 686.224C1068.81 686.597 1069.55 686.784 1070.38 686.784ZM1064.51 682.224C1064.51 681.061 1064.76 680.027 1065.26 679.12C1065.76 678.203 1066.46 677.488 1067.34 676.976C1068.24 676.464 1069.25 676.208 1070.38 676.208C1071.51 676.208 1072.52 676.464 1073.41 676.976C1074.29 677.488 1074.98 678.203 1075.49 679.12C1075.99 680.027 1076.24 681.061 1076.24 682.224C1076.24 683.387 1075.99 684.427 1075.49 685.344C1074.98 686.251 1074.29 686.96 1073.41 687.472C1072.52 687.984 1071.51 688.24 1070.38 688.24C1069.25 688.24 1068.24 687.984 1067.34 687.472C1066.46 686.96 1065.76 686.251 1065.26 685.344C1064.76 684.427 1064.51 683.387 1064.51 682.224ZM1078 676.336H1082.7C1083.33 676.336 1083.89 676.475 1084.38 676.752C1084.87 677.019 1085.25 677.397 1085.52 677.888C1085.79 678.368 1085.93 678.917 1085.93 679.536C1085.93 679.92 1085.84 680.32 1085.64 680.736C1085.45 681.141 1085.2 681.493 1084.89 681.792C1084.92 681.813 1084.96 681.84 1085 681.872C1085.06 681.893 1085.11 681.925 1085.16 681.968C1085.61 682.256 1085.98 682.661 1086.25 683.184C1086.54 683.707 1086.68 684.235 1086.68 684.768C1086.68 685.419 1086.55 686 1086.27 686.512C1085.99 687.013 1085.61 687.408 1085.12 687.696C1084.63 687.973 1084.07 688.112 1083.44 688.112H1078V676.336ZM1083.28 686.672C1083.8 686.672 1084.22 686.496 1084.54 686.144C1084.87 685.792 1085.04 685.339 1085.04 684.784C1085.04 684.187 1084.87 683.701 1084.54 683.328C1084.22 682.955 1083.8 682.768 1083.28 682.768H1079.66V686.672H1083.28ZM1082.75 681.312C1083.21 681.301 1083.58 681.141 1083.87 680.832C1084.16 680.512 1084.3 680.107 1084.3 679.616C1084.3 679.072 1084.14 678.629 1083.82 678.288C1083.51 677.947 1083.1 677.776 1082.57 677.776H1079.66V681.312H1082.75ZM1090.11 676.336V688.112H1088.45V676.336H1090.11ZM1094.14 686.672H1099.98V688.112H1092.48V676.336H1094.14V686.672ZM1109.97 677.776H1103.39V681.328H1109.13V682.768H1103.39V686.672H1109.97V688.112H1101.73V676.336H1109.97V677.776Z" fill="white"/>
<mask id="mask3_181_5625" style="mask-type:alpha" maskUnits="userSpaceOnUse" x="840" y="608" width="60" height="60">
<rect x="840" y="608" width="60" height="60" fill="#D9D9D9"/>
</mask>
<g mask="url(#mask3_181_5625)">
<path d="M862.894 658V656.077H868.077V650.5H850.962C850.001 650.5 849.184 650.163 848.51 649.49C847.837 648.816 847.5 647.999 847.5 647.038V621.462C847.5 620.501 847.837 619.684 848.51 619.01C849.184 618.337 850.001 618 850.962 618H889.039C889.999 618 890.816 618.337 891.49 619.01C892.163 619.684 892.5 620.501 892.5 621.462V647.038C892.5 647.999 892.163 648.816 891.49 649.49C890.816 650.163 889.999 650.5 889.039 650.5H871.923V656.077H877.106V658H862.894ZM850.962 648.577H889.039C889.423 648.577 889.776 648.417 890.096 648.096C890.417 647.776 890.577 647.423 890.577 647.038V621.462C890.577 621.077 890.417 620.724 890.096 620.404C889.776 620.083 889.423 619.923 889.039 619.923H850.962C850.577 619.923 850.224 620.083 849.904 620.404C849.583 620.724 849.423 621.077 849.423 621.462V647.038C849.423 647.423 849.583 647.776 849.904 648.096C850.224 648.417 850.577 648.577 850.962 648.577Z" fill="white"/>
</g>
<mask id="mask4_181_5625" style="mask-type:alpha" maskUnits="userSpaceOnUse" x="1052" y="607" width="57" height="57">
<rect x="1052" y="607" width="57" height="57" fill="#D9D9D9"/>
</mask>
<g mask="url(#mask4_181_5625)">
<path d="M1069.54 659.25C1068.63 659.25 1067.85 658.93 1067.21 658.291C1066.57 657.651 1066.25 656.874 1066.25 655.962V615.039C1066.25 614.126 1066.57 613.35 1067.21 612.71C1067.85 612.07 1068.63 611.75 1069.54 611.75H1091.46C1092.37 611.75 1093.15 612.07 1093.79 612.71C1094.43 613.35 1094.75 614.126 1094.75 615.039V655.962C1094.75 656.874 1094.43 657.651 1093.79 658.291C1093.15 658.93 1092.37 659.25 1091.46 659.25H1069.54ZM1068.08 650.024V655.962C1068.08 656.327 1068.23 656.662 1068.53 656.967C1068.84 657.271 1069.17 657.423 1069.54 657.423H1091.46C1091.83 657.423 1092.16 657.271 1092.47 656.967C1092.77 656.662 1092.92 656.327 1092.92 655.962V650.024H1068.08ZM1080.51 655.254C1080.93 655.254 1081.29 655.105 1081.59 654.807C1081.9 654.51 1082.05 654.145 1082.05 653.713C1082.05 653.282 1081.9 652.913 1081.58 652.607C1081.27 652.301 1080.9 652.148 1080.49 652.148C1080.07 652.148 1079.71 652.305 1079.41 652.618C1079.1 652.931 1078.95 653.296 1078.95 653.711C1078.95 654.158 1079.1 654.527 1079.42 654.818C1079.73 655.108 1080.1 655.254 1080.51 655.254ZM1068.08 648.197H1092.92V618.693H1068.08V648.197ZM1068.08 616.866H1092.92V615.039C1092.92 614.673 1092.77 614.338 1092.47 614.034C1092.16 613.729 1091.83 613.577 1091.46 613.577H1069.54C1069.17 613.577 1068.84 613.729 1068.53 614.034C1068.23 614.338 1068.08 614.673 1068.08 615.039V616.866Z" fill="white"/>
</g>
<line x1="713" y1="655.5" x2="1027" y2="655.5" stroke="#3598D4"/>
<rect x="679.5" y="268.5" width="381" height="71.3204" rx="35.6602" fill="white"/>
<path d="M726.488 293.459C725.933 294.012 725.194 294.339 724.409 294.389C722.158 294.532 719.952 295.452 718.234 297.165C714.476 300.908 714.476 306.979 718.234 310.721C721.99 314.466 728.085 314.464 731.845 310.721L740.918 301.687C742.172 300.438 744.202 300.44 745.456 301.687C746.708 302.934 746.71 304.957 745.456 306.206L736.381 315.243C730.119 321.479 719.962 321.479 713.698 315.243C707.433 309.007 707.435 298.892 713.698 292.654C716.569 289.795 720.254 288.245 724.008 288.007C726.966 287.818 728.583 291.375 726.488 293.461V293.459Z" fill="url(#paint0_linear_181_5625)"/>
<path d="M741.517 314.862C742.073 314.309 742.81 313.982 743.594 313.931C745.843 313.786 748.049 312.868 749.77 311.157C753.538 307.405 753.522 301.307 749.733 297.571C745.957 293.846 739.838 293.935 736.079 297.678L727.082 306.638C725.83 307.885 723.798 307.885 722.545 306.638C721.293 305.391 721.293 303.367 722.545 302.12L731.62 293.084C737.883 286.847 748.041 286.845 754.304 293.084C760.568 299.322 760.562 309.434 754.304 315.673C751.435 318.528 747.75 320.073 743.997 320.313C741.041 320.503 739.422 316.948 741.517 314.86V314.862Z" fill="url(#paint1_linear_181_5625)"/>
<path d="M775.25 299.535C775.233 300.002 775.5 300.402 776.05 300.735C776.6 301.068 777.375 301.402 778.375 301.735L779.6 302.16C780.333 302.427 780.992 302.76 781.575 303.16C782.175 303.56 782.683 304.035 783.1 304.585C783.517 305.118 783.825 305.727 784.025 306.41C784.225 307.077 784.3 307.81 784.25 308.61C784.133 310.393 783.408 311.777 782.075 312.76C780.758 313.743 778.958 314.235 776.675 314.235C775.558 314.235 774.483 314.11 773.45 313.86C772.417 313.627 771.558 313.243 770.875 312.71C770.642 312.51 770.442 312.285 770.275 312.035C770.108 311.768 769.983 311.493 769.9 311.21C769.833 310.927 769.825 310.635 769.875 310.335C769.925 310.018 770.042 309.718 770.225 309.435C770.408 309.152 770.667 308.935 771 308.785C771.333 308.635 771.667 308.552 772 308.535C772.433 308.518 772.775 308.585 773.025 308.735C773.292 308.885 773.542 309.027 773.775 309.16C774.058 309.343 774.425 309.502 774.875 309.635C775.325 309.752 775.975 309.81 776.825 309.81C777.525 309.81 778.067 309.685 778.45 309.435C778.833 309.185 779.033 308.785 779.05 308.235C779.05 308.002 778.958 307.777 778.775 307.56C778.592 307.343 778.325 307.143 777.975 306.96C777.642 306.777 777.25 306.602 776.8 306.435C776.35 306.252 775.867 306.077 775.35 305.91C775.15 305.843 774.933 305.768 774.7 305.685C774.483 305.602 774.3 305.527 774.15 305.46C773.2 305.06 772.433 304.568 771.85 303.985C771.267 303.385 770.825 302.743 770.525 302.06C770.242 301.36 770.092 300.643 770.075 299.91C770.075 299.177 770.183 298.485 770.4 297.835C770.833 296.485 771.633 295.443 772.8 294.71C773.983 293.977 775.433 293.61 777.15 293.61C777.8 293.61 778.367 293.643 778.85 293.71C779.35 293.76 779.783 293.835 780.15 293.935C780.533 294.018 780.858 294.127 781.125 294.26C781.408 294.377 781.667 294.493 781.9 294.61C782.483 294.927 782.933 295.368 783.25 295.935C783.583 296.502 783.658 297.085 783.475 297.685C783.308 298.202 783.025 298.568 782.625 298.785C782.242 299.002 781.808 299.11 781.325 299.11C781.142 299.11 780.933 299.077 780.7 299.01C780.467 298.943 780.292 298.868 780.175 298.785C779.875 298.585 779.492 298.41 779.025 298.26C778.558 298.11 777.95 298.035 777.2 298.035C776.6 298.035 776.125 298.16 775.775 298.41C775.442 298.643 775.267 299.018 775.25 299.535ZM796.945 312.91C796.712 312.91 796.454 312.885 796.17 312.835C795.887 312.785 795.612 312.71 795.345 312.61C795.079 312.51 794.845 312.385 794.645 312.235C794.462 312.085 794.337 311.902 794.27 311.685L791.745 302.56L790.595 313.81H785.87L787.97 296.135C788.004 295.752 788.104 295.41 788.27 295.11C788.454 294.81 788.67 294.56 788.92 294.36C789.17 294.143 789.437 293.977 789.72 293.86C790.02 293.743 790.312 293.668 790.595 293.635C790.895 293.618 791.212 293.635 791.545 293.685C791.895 293.735 792.22 293.843 792.52 294.01C792.837 294.16 793.12 294.377 793.37 294.66C793.62 294.927 793.804 295.268 793.92 295.685L796.945 307.135L799.97 295.685C800.087 295.268 800.262 294.927 800.495 294.66C800.745 294.377 801.029 294.16 801.345 294.01C801.662 293.843 801.987 293.735 802.32 293.685C802.67 293.635 802.995 293.618 803.295 293.635C803.579 293.668 803.862 293.743 804.145 293.86C804.445 293.977 804.72 294.143 804.97 294.36C805.22 294.56 805.429 294.81 805.595 295.11C805.779 295.41 805.887 295.752 805.92 296.135L808.02 313.81H803.295L802.17 302.485L799.62 311.685C799.554 311.902 799.42 312.085 799.22 312.235C799.037 312.385 798.812 312.51 798.545 312.61C798.279 312.71 798.004 312.785 797.72 312.835C797.437 312.885 797.179 312.91 796.945 312.91ZM815.497 295.66C815.747 294.96 816.172 294.443 816.772 294.11C817.388 293.76 818.038 293.585 818.722 293.585C819.355 293.585 819.963 293.76 820.547 294.11C821.147 294.46 821.563 294.977 821.797 295.66L828.322 313.81H822.822L821.847 310.71H815.422L814.472 313.81H809.072L815.497 295.66ZM816.722 306.485H820.547L818.647 300.26L816.722 306.485ZM845.835 300.51C845.835 301.71 845.552 302.76 844.985 303.66C844.435 304.543 843.71 305.268 842.81 305.835L847.56 313.81H841.91L838.16 307.085H834.96V313.81H829.835V297.635C829.835 296.918 829.893 296.31 830.01 295.81C830.143 295.31 830.36 294.902 830.66 294.585C830.96 294.268 831.36 294.043 831.86 293.91C832.36 293.76 832.985 293.685 833.735 293.685H838.335C839.418 293.685 840.418 293.818 841.335 294.085C842.252 294.335 843.043 294.735 843.71 295.285C844.377 295.818 844.893 296.493 845.26 297.31C845.643 298.127 845.835 299.093 845.835 300.21V300.51ZM834.96 302.86H838.21C839.06 302.86 839.693 302.627 840.11 302.16C840.543 301.693 840.76 301.143 840.76 300.51V300.335C840.76 299.702 840.543 299.152 840.11 298.685C839.693 298.218 839.06 297.985 838.21 297.985H835.685C835.402 297.985 835.21 298.035 835.11 298.135C835.01 298.218 834.96 298.41 834.96 298.71V302.86ZM853.211 313.81V298.11H849.386C849.019 298.11 848.703 298.043 848.436 297.91C848.186 297.777 847.978 297.602 847.811 297.385C847.661 297.168 847.544 296.927 847.461 296.66C847.394 296.393 847.361 296.135 847.361 295.885C847.361 295.635 847.394 295.385 847.461 295.135C847.544 294.868 847.661 294.635 847.811 294.435C847.978 294.218 848.186 294.052 848.436 293.935C848.703 293.802 849.019 293.735 849.386 293.735H862.236C862.603 293.735 862.911 293.802 863.161 293.935C863.428 294.052 863.636 294.218 863.786 294.435C863.953 294.635 864.069 294.868 864.136 295.135C864.219 295.385 864.261 295.635 864.261 295.885C864.261 296.135 864.219 296.393 864.136 296.66C864.069 296.927 863.953 297.168 863.786 297.385C863.619 297.602 863.411 297.777 863.161 297.91C862.911 298.043 862.603 298.11 862.236 298.11H858.411V313.81H853.211ZM876.863 313.81C876.113 313.81 875.488 313.743 874.988 313.61C874.488 313.46 874.088 313.227 873.788 312.91C873.488 312.593 873.271 312.185 873.138 311.685C873.021 311.185 872.963 310.577 872.963 309.86V296.135C872.963 295.718 873.029 295.352 873.163 295.035C873.313 294.718 873.504 294.452 873.738 294.235C873.988 294.018 874.271 293.86 874.588 293.76C874.904 293.643 875.229 293.585 875.563 293.585C875.896 293.585 876.221 293.643 876.538 293.76C876.854 293.86 877.129 294.018 877.363 294.235C877.613 294.452 877.804 294.718 877.938 295.035C878.088 295.352 878.163 295.718 878.163 296.135V308.71C878.163 309.01 878.213 309.21 878.313 309.31C878.413 309.393 878.604 309.435 878.888 309.435H884.438C884.804 309.435 885.113 309.502 885.363 309.635C885.629 309.752 885.838 309.918 885.988 310.135C886.154 310.335 886.271 310.568 886.338 310.835C886.421 311.085 886.463 311.335 886.463 311.585C886.463 311.835 886.421 312.093 886.338 312.36C886.271 312.627 886.154 312.868 885.988 313.085C885.821 313.302 885.613 313.477 885.363 313.61C885.113 313.743 884.804 313.81 884.438 313.81H876.863ZM887.925 301.185C887.925 299.752 888.184 298.552 888.7 297.585C889.217 296.602 889.884 295.818 890.7 295.235C891.517 294.635 892.417 294.21 893.4 293.96C894.4 293.693 895.367 293.56 896.3 293.56C897.217 293.56 898.167 293.693 899.15 293.96C900.15 294.21 901.059 294.635 901.875 295.235C902.692 295.818 903.359 296.602 903.875 297.585C904.409 298.552 904.675 299.752 904.675 301.185V306.66C904.675 308.093 904.409 309.302 903.875 310.285C903.359 311.252 902.692 312.035 901.875 312.635C901.059 313.218 900.15 313.635 899.15 313.885C898.167 314.152 897.217 314.285 896.3 314.285C895.384 314.285 894.425 314.152 893.425 313.885C892.442 313.635 891.542 313.218 890.725 312.635C889.909 312.035 889.234 311.252 888.7 310.285C888.184 309.302 887.925 308.093 887.925 306.66V301.185ZM899.575 301.035C899.575 300.485 899.475 300.01 899.275 299.61C899.092 299.21 898.842 298.877 898.525 298.61C898.209 298.343 897.859 298.152 897.475 298.035C897.092 297.902 896.7 297.835 896.3 297.835C895.9 297.835 895.509 297.902 895.125 298.035C894.742 298.152 894.392 298.343 894.075 298.61C893.759 298.877 893.5 299.21 893.3 299.61C893.117 300.01 893.025 300.485 893.025 301.035V306.81C893.025 307.31 893.125 307.76 893.325 308.16C893.542 308.56 893.809 308.902 894.125 309.185C894.442 309.452 894.792 309.66 895.175 309.81C895.575 309.943 895.95 310.01 896.3 310.01C896.65 310.01 897.017 309.943 897.4 309.81C897.8 309.66 898.159 309.452 898.475 309.185C898.792 308.902 899.05 308.56 899.25 308.16C899.467 307.76 899.575 307.31 899.575 306.81V301.035ZM912.098 306.285C912.098 306.868 912.19 307.385 912.373 307.835C912.573 308.268 912.831 308.635 913.148 308.935C913.481 309.218 913.856 309.435 914.273 309.585C914.69 309.735 915.123 309.81 915.573 309.81C916.156 309.81 916.656 309.768 917.073 309.685C917.506 309.602 917.89 309.485 918.223 309.335C918.406 309.252 918.606 309.152 918.823 309.035C919.056 308.918 919.29 308.843 919.523 308.81C919.973 308.727 920.381 308.76 920.748 308.91C921.115 309.06 921.423 309.343 921.673 309.76C921.99 310.277 922.065 310.793 921.898 311.31C921.748 311.827 921.456 312.26 921.023 312.61C920.323 313.177 919.481 313.585 918.498 313.835C917.515 314.102 916.54 314.235 915.573 314.235C914.49 314.235 913.431 314.093 912.398 313.81C911.365 313.527 910.44 313.077 909.623 312.46C908.823 311.827 908.173 311.027 907.673 310.06C907.19 309.077 906.948 307.893 906.948 306.51V301.31C906.948 299.927 907.19 298.752 907.673 297.785C908.173 296.802 908.823 296.002 909.623 295.385C910.44 294.752 911.365 294.293 912.398 294.01C913.431 293.727 914.49 293.585 915.573 293.585C916.69 293.585 917.665 293.702 918.498 293.935C919.348 294.168 920.015 294.46 920.498 294.81C921.015 295.177 921.373 295.635 921.573 296.185C921.773 296.718 921.723 297.252 921.423 297.785C921.173 298.218 920.84 298.527 920.423 298.71C920.006 298.893 919.581 298.943 919.148 298.86C918.865 298.81 918.606 298.735 918.373 298.635C918.156 298.518 917.956 298.418 917.773 298.335C917.473 298.218 917.156 298.135 916.823 298.085C916.506 298.035 916.09 298.01 915.573 298.01C915.123 298.01 914.69 298.085 914.273 298.235C913.856 298.385 913.481 298.61 913.148 298.91C912.831 299.193 912.573 299.56 912.373 300.01C912.19 300.443 912.098 300.952 912.098 301.535V306.285ZM929.246 295.66C929.496 294.96 929.921 294.443 930.521 294.11C931.138 293.76 931.788 293.585 932.471 293.585C933.104 293.585 933.713 293.76 934.296 294.11C934.896 294.46 935.313 294.977 935.546 295.66L942.071 313.81H936.571L935.596 310.71H929.171L928.221 313.81H922.821L929.246 295.66ZM930.471 306.485H934.296L932.396 300.26L930.471 306.485ZM947.484 313.81C946.734 313.81 946.109 313.743 945.609 313.61C945.109 313.46 944.709 313.227 944.409 312.91C944.109 312.593 943.893 312.185 943.759 311.685C943.643 311.185 943.584 310.577 943.584 309.86V296.135C943.584 295.718 943.651 295.352 943.784 295.035C943.934 294.718 944.126 294.452 944.359 294.235C944.609 294.018 944.893 293.86 945.209 293.76C945.526 293.643 945.851 293.585 946.184 293.585C946.518 293.585 946.843 293.643 947.159 293.76C947.476 293.86 947.751 294.018 947.984 294.235C948.234 294.452 948.426 294.718 948.559 295.035C948.709 295.352 948.784 295.718 948.784 296.135V308.71C948.784 309.01 948.834 309.21 948.934 309.31C949.034 309.393 949.226 309.435 949.509 309.435H955.059C955.426 309.435 955.734 309.502 955.984 309.635C956.251 309.752 956.459 309.918 956.609 310.135C956.776 310.335 956.893 310.568 956.959 310.835C957.043 311.085 957.084 311.335 957.084 311.585C957.084 311.835 957.043 312.093 956.959 312.36C956.893 312.627 956.776 312.868 956.609 313.085C956.443 313.302 956.234 313.477 955.984 313.61C955.734 313.743 955.426 313.81 955.059 313.81H947.484ZM958.847 313.81V297.635C958.847 296.918 958.906 296.31 959.022 295.81C959.156 295.31 959.372 294.902 959.672 294.585C959.972 294.268 960.372 294.043 960.872 293.91C961.372 293.76 961.997 293.685 962.747 293.685H971.072C971.439 293.685 971.747 293.752 971.997 293.885C972.247 294.018 972.456 294.193 972.622 294.41C972.789 294.627 972.906 294.868 972.972 295.135C973.056 295.402 973.097 295.66 973.097 295.91C973.097 296.16 973.056 296.418 972.972 296.685C972.906 296.935 972.789 297.168 972.622 297.385C972.472 297.585 972.264 297.752 971.997 297.885C971.747 298.002 971.439 298.06 971.072 298.06H964.722C964.439 298.06 964.247 298.11 964.147 298.21C964.047 298.293 963.997 298.485 963.997 298.785V301.935H970.422C970.789 301.935 971.097 302.002 971.347 302.135C971.597 302.268 971.806 302.443 971.972 302.66C972.139 302.877 972.256 303.118 972.322 303.385C972.406 303.652 972.447 303.91 972.447 304.16C972.447 304.41 972.406 304.668 972.322 304.935C972.256 305.185 972.139 305.418 971.972 305.635C971.822 305.835 971.614 306.002 971.347 306.135C971.097 306.252 970.789 306.31 970.422 306.31H963.997V313.81H958.847ZM974.811 301.185C974.811 299.752 975.069 298.552 975.586 297.585C976.103 296.602 976.769 295.818 977.586 295.235C978.403 294.635 979.303 294.21 980.286 293.96C981.286 293.693 982.253 293.56 983.186 293.56C984.103 293.56 985.053 293.693 986.036 293.96C987.036 294.21 987.944 294.635 988.761 295.235C989.578 295.818 990.244 296.602 990.761 297.585C991.294 298.552 991.561 299.752 991.561 301.185V306.66C991.561 308.093 991.294 309.302 990.761 310.285C990.244 311.252 989.578 312.035 988.761 312.635C987.944 313.218 987.036 313.635 986.036 313.885C985.053 314.152 984.103 314.285 983.186 314.285C982.269 314.285 981.311 314.152 980.311 313.885C979.328 313.635 978.428 313.218 977.611 312.635C976.794 312.035 976.119 311.252 975.586 310.285C975.069 309.302 974.811 308.093 974.811 306.66V301.185ZM986.461 301.035C986.461 300.485 986.361 300.01 986.161 299.61C985.978 299.21 985.728 298.877 985.411 298.61C985.094 298.343 984.744 298.152 984.361 298.035C983.978 297.902 983.586 297.835 983.186 297.835C982.786 297.835 982.394 297.902 982.011 298.035C981.628 298.152 981.278 298.343 980.961 298.61C980.644 298.877 980.386 299.21 980.186 299.61C980.003 300.01 979.911 300.485 979.911 301.035V306.81C979.911 307.31 980.011 307.76 980.211 308.16C980.428 308.56 980.694 308.902 981.011 309.185C981.328 309.452 981.678 309.66 982.061 309.81C982.461 309.943 982.836 310.01 983.186 310.01C983.536 310.01 983.903 309.943 984.286 309.81C984.686 309.66 985.044 309.452 985.361 309.185C985.678 308.902 985.936 308.56 986.136 308.16C986.353 307.76 986.461 307.31 986.461 306.81V301.035ZM993.834 301.185C993.834 299.752 994.092 298.552 994.609 297.585C995.125 296.602 995.792 295.818 996.609 295.235C997.425 294.635 998.325 294.21 999.309 293.96C1000.31 293.693 1001.28 293.56 1002.21 293.56C1003.13 293.56 1004.08 293.693 1005.06 293.96C1006.06 294.21 1006.97 294.635 1007.78 295.235C1008.6 295.818 1009.27 296.602 1009.78 297.585C1010.32 298.552 1010.58 299.752 1010.58 301.185V306.66C1010.58 308.093 1010.32 309.302 1009.78 310.285C1009.27 311.252 1008.6 312.035 1007.78 312.635C1006.97 313.218 1006.06 313.635 1005.06 313.885C1004.08 314.152 1003.13 314.285 1002.21 314.285C1001.29 314.285 1000.33 314.152 999.334 313.885C998.35 313.635 997.45 313.218 996.634 312.635C995.817 312.035 995.142 311.252 994.609 310.285C994.092 309.302 993.834 308.093 993.834 306.66V301.185ZM1005.48 301.035C1005.48 300.485 1005.38 300.01 1005.18 299.61C1005 299.21 1004.75 298.877 1004.43 298.61C1004.12 298.343 1003.77 298.152 1003.38 298.035C1003 297.902 1002.61 297.835 1002.21 297.835C1001.81 297.835 1001.42 297.902 1001.03 298.035C1000.65 298.152 1000.3 298.343 999.984 298.61C999.667 298.877 999.409 299.21 999.209 299.61C999.025 300.01 998.934 300.485 998.934 301.035V306.81C998.934 307.31 999.034 307.76 999.234 308.16C999.45 308.56 999.717 308.902 1000.03 309.185C1000.35 309.452 1000.7 309.66 1001.08 309.81C1001.48 309.943 1001.86 310.01 1002.21 310.01C1002.56 310.01 1002.93 309.943 1003.31 309.81C1003.71 309.66 1004.07 309.452 1004.38 309.185C1004.7 308.902 1004.96 308.56 1005.16 308.16C1005.38 307.76 1005.48 307.31 1005.48 306.81V301.035ZM1020.78 293.685C1021.86 293.685 1022.93 293.843 1023.98 294.16C1025.05 294.46 1026 294.977 1026.83 295.71C1027.68 296.427 1028.36 297.377 1028.88 298.56C1029.4 299.743 1029.66 301.202 1029.66 302.935V304.56C1029.66 306.293 1029.4 307.752 1028.88 308.935C1028.36 310.118 1027.68 311.077 1026.83 311.81C1026 312.527 1025.05 313.043 1023.98 313.36C1022.93 313.66 1021.86 313.81 1020.78 313.81H1017.06C1016.31 313.81 1015.68 313.743 1015.18 313.61C1014.68 313.46 1014.28 313.227 1013.98 312.91C1013.68 312.593 1013.46 312.185 1013.33 311.685C1013.21 311.185 1013.16 310.577 1013.16 309.86V297.635C1013.16 296.918 1013.21 296.31 1013.33 295.81C1013.46 295.31 1013.68 294.902 1013.98 294.585C1014.28 294.268 1014.68 294.043 1015.18 293.91C1015.68 293.76 1016.31 293.685 1017.06 293.685H1020.78ZM1024.56 302.535C1024.56 301.068 1024.2 299.952 1023.48 299.185C1022.76 298.402 1021.81 298.01 1020.63 298.01H1018.98C1018.7 298.01 1018.51 298.06 1018.41 298.16C1018.31 298.243 1018.26 298.435 1018.26 298.735V308.76C1018.26 309.06 1018.31 309.26 1018.41 309.36C1018.51 309.443 1018.7 309.485 1018.98 309.485H1020.63C1021.81 309.485 1022.76 309.102 1023.48 308.335C1024.2 307.552 1024.56 306.427 1024.56 304.96V302.535Z" fill="#424242"/>
<rect x="679.5" y="268.5" width="381" height="71.3204" rx="35.6602" stroke="#E4E4E4"/>
<path d="M467.974 147H470.086V140.856H473.782C477.718 140.832 479.518 138.432 479.542 135.432C479.518 132.408 477.718 130.032 473.734 130.008H467.974V147ZM470.086 138.984V131.88H473.638C476.374 131.904 477.43 133.392 477.43 135.432C477.43 137.448 476.374 138.96 473.686 138.984H470.086ZM492.826 135.384H494.938C494.314 131.856 491.53 129.792 488.122 129.816C483.754 129.792 480.586 133.152 480.586 138.504C480.586 143.88 483.754 147.24 488.122 147.24C491.554 147.24 494.338 145.152 494.938 141.672H492.826C492.322 144 490.33 145.248 488.122 145.272C485.026 145.248 482.65 142.896 482.65 138.504C482.65 134.136 485.026 131.76 488.122 131.784C490.33 131.76 492.346 133.032 492.826 135.384ZM499.122 145.416H496.866L495.57 151.8H497.298L499.122 145.416ZM523.334 130.392H515.846V127.944H514.022V130.392H506.438V131.88H523.334V130.392ZM505.478 142.92H510.422V148.92H512.294V142.92H517.67V148.92H519.494V142.92H524.534V141.384H505.478V142.92ZM508.166 136.536C508.118 138.72 510.686 139.968 514.934 139.992C519.182 139.968 521.726 138.72 521.75 136.536C521.726 134.304 519.182 133.08 514.934 133.08C510.686 133.08 508.118 134.304 508.166 136.536ZM510.038 136.536C510.038 135.24 511.838 134.496 514.934 134.472C518.03 134.496 519.83 135.24 519.83 136.536C519.83 137.808 518.03 138.552 514.934 138.552C511.838 138.552 510.038 137.808 510.038 136.536ZM542.78 128.088H541.052V136.44H537.98V128.52H536.3V147.816H537.98V137.976H541.052V148.92H542.78V128.088ZM525.74 143.736H527.084C530.3 143.736 532.436 143.64 534.908 143.112L534.764 141.576C532.46 142.056 530.492 142.152 527.612 142.2V132.12H533.564V130.632H525.74V143.736ZM561.698 129.048H546.338V130.536H549.554V135.336H546.386V136.824H553.106V139.368H544.562V140.856H563.522V139.368H554.93V136.824H561.65V135.336H558.53V130.536H561.698V129.048ZM547.01 148.44H561.41V146.904H548.834V142.68H547.01V148.44ZM551.378 135.336V130.536H556.658V135.336H551.378ZM567.513 145.416H565.257L563.961 151.8H565.689L567.513 145.416ZM582.941 130.488H574.685V143.736H576.029C579.461 143.76 581.453 143.64 583.901 143.208L583.709 141.624C581.453 142.08 579.533 142.176 576.461 142.2V137.448H582.653V135.96H576.461V131.976H582.941V130.488ZM585.293 147.864H587.069V137.976H589.949V148.92H591.725V128.088H589.949V136.44H587.069V128.52H585.293V147.864ZM597.731 128.424H595.907V135.336H609.923V128.424H608.051V130.44H597.731V128.424ZM593.411 138.6H612.371V137.112H593.411V138.6ZM595.715 141.912H608.147V143.784H595.763V148.68H610.547V147.192H597.539V145.128H609.923V140.52H595.715V141.912ZM597.731 133.896V131.832H608.051V133.896H597.731ZM630.089 128.088H628.313V142.152H630.089V128.088ZM613.961 130.968H621.689V133.8H614.009V139.896H615.737C619.721 139.872 622.505 139.752 625.913 139.176L625.721 137.688C622.433 138.24 619.697 138.36 615.833 138.36V135.288H623.513V129.432H613.961V130.968ZM615.305 147.384L616.025 148.824C619.169 148.272 622.097 146.712 623.345 144.288C624.569 146.688 627.497 148.272 630.665 148.824L631.385 147.384C627.665 146.808 624.305 144.648 624.329 141.72V141.096H622.409V141.72C622.409 144.672 619.001 146.808 615.305 147.384ZM656.303 137.976H637.295V139.512H656.303V137.976ZM639.551 145.128C639.575 147.504 642.263 148.848 646.751 148.872C651.239 148.848 653.927 147.504 653.951 145.128C653.927 142.704 651.239 141.36 646.751 141.336C642.263 141.36 639.575 142.704 639.551 145.128ZM639.695 136.008H654.047V134.472H641.519V130.44H653.903V128.904H639.695V136.008ZM641.423 145.128C641.423 143.64 643.415 142.8 646.751 142.776C650.063 142.8 652.079 143.64 652.079 145.128C652.079 146.568 650.063 147.408 646.751 147.384C643.415 147.408 641.423 146.568 641.423 145.128ZM678.821 128.088H676.997V143.304H678.821V128.088ZM662.117 134.664C662.093 137.688 664.445 139.8 667.589 139.752C670.685 139.8 673.013 137.688 673.013 134.664C673.013 131.64 670.685 129.552 667.589 129.528C664.445 129.552 662.093 131.64 662.117 134.664ZM663.893 134.664C663.893 132.624 665.453 131.16 667.589 131.16C669.629 131.16 671.237 132.624 671.237 134.664C671.237 136.728 669.629 138.168 667.589 138.168C665.453 138.168 663.893 136.728 663.893 134.664ZM665.381 148.44H679.493V146.904H667.205V141.768H665.381V148.44ZM698.412 128.088H696.588V135.96H692.22V137.448H696.588V148.92H698.412V128.088ZM682.14 143.928H683.724C687.732 143.904 690.3 143.76 693.324 143.256L693.132 141.768C690.252 142.272 687.78 142.368 683.964 142.392V137.352H690.924V135.864H683.964V131.496H691.836V129.96H682.14V143.928ZM703.65 129.96H701.826V139.608H703.122C705.57 139.584 707.874 139.464 710.658 138.888L710.466 137.352C707.994 137.88 705.834 138 703.65 138.024V129.96ZM703.41 147.384L704.082 148.824C707.202 148.272 710.178 146.688 711.45 144.36C712.722 146.688 715.698 148.272 718.818 148.824L719.538 147.384C715.89 146.832 712.362 144.624 712.386 141.864V141.096H710.562V141.864C710.538 144.624 707.034 146.832 703.41 147.384ZM708.018 134.376H712.53V140.328H714.258V128.52H712.53V132.84H708.018V134.376ZM716.706 142.2H718.434V128.088H716.706V142.2ZM732.168 132.552V132.12H736.824V130.632H732.168V127.992H730.344V130.632H725.64V132.12H730.344V132.552C730.344 135.408 728.184 137.904 725.064 138.84L726.024 140.328C728.472 139.488 730.392 137.736 731.28 135.48C732.192 137.472 734.064 139.032 736.44 139.752L737.304 138.312C734.256 137.4 732.144 135.12 732.168 132.552ZM727.752 145.128C727.752 147.48 730.344 148.848 734.664 148.824C738.96 148.848 741.528 147.48 741.528 145.128C741.528 142.728 738.96 141.36 734.664 141.384C730.344 141.36 727.752 142.728 727.752 145.128ZM729.576 145.128C729.576 143.64 731.496 142.824 734.664 142.824C737.808 142.824 739.728 143.64 739.752 145.128C739.728 146.544 737.808 147.408 734.664 147.384C731.496 147.408 729.576 146.544 729.576 145.128ZM739.512 140.856H741.336V135H744.456V133.512H741.336V128.088H739.512V140.856ZM762.462 128.088H760.686V148.92H762.462V128.088ZM744.846 137.064C744.846 141.504 746.598 144.312 749.31 144.312C751.878 144.312 753.606 141.792 753.798 137.736H756.51V147.864H758.238V128.52H756.51V136.2H753.798C753.558 132.264 751.83 129.84 749.31 129.816C746.598 129.84 744.846 132.624 744.846 137.064ZM746.574 137.064C746.55 133.68 747.63 131.544 749.31 131.544C751.014 131.544 752.094 133.68 752.094 137.064C752.094 140.448 751.014 142.584 749.31 142.536C747.63 142.584 746.55 140.448 746.574 137.064ZM779.46 131.016V130.872H786.084V129.384H770.724V130.872H777.396V131.016C777.372 133.8 773.676 136.176 770.052 136.728L770.772 138.168C773.988 137.616 777.132 135.888 778.428 133.392C779.7 135.888 782.844 137.616 786.084 138.168L786.804 136.728C783.156 136.176 779.436 133.8 779.46 131.016ZM768.948 141.48H777.492V148.872H779.268V141.48H787.908V139.944H768.948V141.48ZM807.547 144.648H798.811V139.56H796.987V144.648H788.491V146.184H807.547V144.648ZM789.211 138.264L790.027 139.8C793.219 139.128 796.531 136.992 797.923 134.016C799.267 136.992 802.627 139.128 805.771 139.8L806.635 138.264C802.987 137.64 798.859 134.568 798.859 131.112V129.48H796.939V131.112C796.915 134.592 792.859 137.64 789.211 138.264ZM818.545 129.96H808.897V139.56H818.545V129.96ZM810.721 138.072V131.448H816.769V138.072H810.721ZM811.249 148.44H825.265V146.904H813.073V141.912H811.249V148.44ZM822.481 143.352H824.305V135.96H827.425V134.424H824.305V128.04H822.481V143.352ZM849.559 128.088H847.735V139.224H849.559V128.088ZM832.855 133.896C832.831 136.704 835.135 138.672 838.327 138.648C841.471 138.672 843.751 136.704 843.751 133.896C843.751 131.016 841.471 129.072 838.327 129.096C835.135 129.072 832.831 131.016 832.855 133.896ZM834.631 133.896C834.631 131.976 836.167 130.632 838.327 130.632C840.439 130.632 841.975 131.976 841.975 133.896C841.975 135.768 840.439 137.112 838.327 137.112C836.167 137.112 834.631 135.768 834.631 133.896ZM836.071 148.632H849.559V140.28H847.735V142.824H837.895V140.28H836.071V148.632ZM837.895 147.096V144.312H847.735V147.096H837.895ZM861.757 129.336H852.733V130.824H859.933V133.752H852.781V139.944H854.269C858.469 139.92 860.605 139.848 863.197 139.416L863.005 137.88C860.557 138.336 858.541 138.432 854.605 138.408V135.192H861.757V129.336ZM855.133 143.496H867.325V148.92H869.149V142.008H855.133V143.496ZM863.149 137.016H867.325V140.904H869.149V128.088H867.325V131.208H863.149V132.696H867.325V135.48H863.149V137.016ZM887.587 128.088H885.763V148.92H887.587V138.216H891.043V136.68H887.587V128.088ZM871.315 132.936H883.699V131.4H878.515V128.328H876.691V131.4H871.315V132.936ZM872.515 139.464C872.491 142.272 874.651 144.24 877.603 144.216C880.579 144.24 882.715 142.272 882.739 139.464C882.715 136.632 880.579 134.664 877.603 134.664C874.651 134.664 872.491 136.632 872.515 139.464ZM874.291 139.464C874.267 137.568 875.683 136.2 877.603 136.2C879.547 136.2 880.963 137.568 880.963 139.464C880.963 141.36 879.547 142.68 877.603 142.68C875.683 142.68 874.267 141.36 874.291 139.464ZM901.514 129.912H891.962V139.608H901.514V137.736H906.41V143.304H908.234V128.088H906.41V131.736H901.514V129.912ZM893.786 138.12V131.4H899.738V138.12H893.786ZM894.794 148.44H908.714V146.904H896.618V141.912H894.794V148.44ZM901.514 136.2V133.272H906.41V136.2H901.514ZM921.536 132.216V129.384H919.76V132.216C919.76 134.544 918.104 137.232 915.344 138.408L916.352 139.848C918.416 138.96 919.904 137.184 920.672 135.192C921.416 136.992 922.832 138.504 924.848 139.272L925.856 137.832C923.144 136.848 921.536 134.52 921.536 132.216ZM919.136 145.128C919.112 147.48 921.8 148.848 926.144 148.872C930.44 148.848 933.128 147.48 933.104 145.128C933.128 142.8 930.44 141.408 926.144 141.432C921.8 141.408 919.112 142.8 919.136 145.128ZM920.96 145.128C920.936 143.712 922.928 142.848 926.144 142.824C929.288 142.848 931.28 143.712 931.28 145.128C931.28 146.568 929.288 147.432 926.144 147.432C922.928 147.432 920.936 146.568 920.96 145.128ZM926.768 140.28H928.496V135.192H931.28V140.952H933.008V128.088H931.28V133.704H928.496V128.472H926.768V140.28ZM941.894 131.976V129.336H940.07V131.928C940.046 135.168 937.958 137.976 934.79 139.128L935.798 140.568C938.27 139.632 940.142 137.712 941.054 135.24C941.966 137.448 943.814 139.2 946.166 140.04L947.078 138.6C944.03 137.52 941.87 134.856 941.894 131.976ZM938.15 148.44H952.118V146.904H940.022V141.96H938.15V148.44ZM949.334 143.448H951.158V136.008H954.278V134.472H951.158V128.04H949.334V143.448ZM961.436 134.472V131.736H966.14V130.2H954.812V131.736H959.66V134.472C959.636 138.024 957.068 141.984 954.044 143.448L955.148 144.888C957.5 143.688 959.612 141 960.572 137.952C961.484 140.76 963.476 143.232 965.804 144.36L966.86 142.92C963.86 141.48 961.436 137.808 961.436 134.472ZM968.684 148.92H970.556V138.072H974.012V136.488H970.556V128.088H968.684V148.92ZM980.786 129.24H978.914L973.442 149.544H975.314L980.786 129.24ZM999.746 138.168H980.786V139.656H989.33V142.104H983.09V148.632H997.442V142.104H991.154V139.656H999.746V138.168ZM982.562 130.248H985.778V134.664H982.61V136.2H997.874V134.664H994.754V130.248H997.922V128.76H982.562V130.248ZM984.914 147.096V143.592H995.618V147.096H984.914ZM987.602 134.664V130.248H992.882V134.664H987.602ZM1016.89 128.952H1002.78V136.008H1008.87V138.648H1000.33V140.136H1019.29V138.648H1010.7V136.008H1016.89V128.952ZM1002.39 143.832H1015.11V148.92H1016.94V142.344H1002.39V143.832ZM1004.55 134.52V130.44H1015.06V134.52H1004.55ZM1043.68 137.976H1024.67V139.512H1043.68V137.976ZM1026.93 145.128C1026.95 147.504 1029.64 148.848 1034.13 148.872C1038.61 148.848 1041.3 147.504 1041.33 145.128C1041.3 142.704 1038.61 141.36 1034.13 141.336C1029.64 141.36 1026.95 142.704 1026.93 145.128ZM1027.07 136.008H1041.42V134.472H1028.89V130.44H1041.28V128.904H1027.07V136.008ZM1028.8 145.128C1028.8 143.64 1030.79 142.8 1034.13 142.776C1037.44 142.8 1039.45 143.64 1039.45 145.128C1039.45 146.568 1037.44 147.408 1034.13 147.384C1030.79 147.408 1028.8 146.568 1028.8 145.128ZM1063.22 139.56H1054.58V137.352H1061.25V135.864H1048.48V133.656H1060.77V128.616H1046.56V130.104H1058.95V132.264H1046.66V137.352H1052.8V139.56H1044.16V141.048H1063.22V139.56ZM1046.28 144.168H1059.04V148.728H1060.92V142.68H1046.28V144.168ZM1067.16 145.416H1064.91L1063.61 151.8H1065.34L1067.16 145.416ZM1085.42 130.056H1074.14V131.544H1076.25V138.72L1073.57 138.744L1073.76 140.28C1077.41 140.304 1082.3 140.208 1086.53 139.56L1086.38 138.168C1085.37 138.288 1084.34 138.384 1083.26 138.456V131.544H1085.42V130.056ZM1076.73 148.44H1090.75V146.904H1078.56V141.96H1076.73V148.44ZM1078.08 138.696V131.544H1081.49V138.576C1080.33 138.624 1079.18 138.672 1078.08 138.696ZM1087.97 143.4H1089.79V135.96H1092.91V134.424H1089.79V128.088H1087.97V143.4ZM1110.92 128.088H1109.14V136.344H1106.21V128.52H1104.44V147.864H1106.21V137.88H1109.14V148.92H1110.92V128.088ZM1093.78 143.304H1101.8V130.488H1093.78V143.304ZM1095.56 141.816V131.976H1100.07V141.816H1095.56ZM1130.36 128.088H1128.59V136.536H1125.56V128.52H1123.84V147.816H1125.56V138.12H1128.59V148.92H1130.36V128.088ZM1113.61 143.496H1114.96C1117.24 143.496 1119.61 143.352 1122.49 142.824L1122.3 141.192C1119.76 141.696 1117.52 141.864 1115.48 141.864V130.584H1113.61V143.496ZM1149.38 141.48H1135.36V142.968H1147.55V148.92H1149.38V141.48ZM1132.48 134.232C1132.43 137.184 1134.74 139.248 1137.86 139.224C1139.68 139.248 1141.22 138.528 1142.18 137.352H1147.55V140.328H1149.38V128.088H1147.55V131.16H1142.18C1141.22 129.984 1139.68 129.264 1137.86 129.288C1134.74 129.24 1132.43 131.328 1132.48 134.232ZM1134.21 134.232C1134.21 132.264 1135.75 130.824 1137.86 130.824C1139.92 130.824 1141.48 132.264 1141.46 134.232C1141.48 136.248 1139.92 137.664 1137.86 137.688C1135.75 137.664 1134.21 136.248 1134.21 134.232ZM1142.99 132.648H1147.55V135.816H1142.99C1143.16 135.336 1143.23 134.784 1143.23 134.232C1143.23 133.68 1143.14 133.128 1142.99 132.648ZM1172.71 128.088H1170.89V142.056H1172.71V135.912H1175.83V134.376H1172.71V128.088ZM1156.39 139.944L1156.58 141.432C1160.26 141.432 1165.25 141.408 1169.74 140.616L1169.59 139.272C1167.77 139.536 1165.82 139.68 1163.88 139.776V138.312C1166.28 138.096 1167.79 136.968 1167.82 135.288C1167.79 133.368 1165.87 132.192 1162.92 132.216C1159.99 132.192 1158.02 133.368 1158.02 135.288C1158.02 136.968 1159.58 138.096 1162.01 138.312V139.848C1159.97 139.92 1158.05 139.944 1156.39 139.944ZM1156.92 131.4H1168.97V129.96H1163.88V127.896H1162.01V129.96H1156.92V131.4ZM1158.94 144.552H1170.89V148.92H1172.71V143.112H1158.94V144.552ZM1159.8 135.288C1159.78 134.16 1161 133.464 1162.92 133.512C1164.84 133.464 1166.04 134.16 1166.04 135.288C1166.04 136.344 1164.84 137.088 1162.92 137.064C1161 137.088 1159.78 136.344 1159.8 135.288ZM1193.21 128.088H1191.39V143.304H1193.21V128.088ZM1176.51 134.664C1176.49 137.688 1178.84 139.8 1181.98 139.752C1185.08 139.8 1187.41 137.688 1187.41 134.664C1187.41 131.64 1185.08 129.552 1181.98 129.528C1178.84 129.552 1176.49 131.64 1176.51 134.664ZM1178.29 134.664C1178.29 132.624 1179.85 131.16 1181.98 131.16C1184.02 131.16 1185.63 132.624 1185.63 134.664C1185.63 136.728 1184.02 138.168 1181.98 138.168C1179.85 138.168 1178.29 136.728 1178.29 134.664ZM1179.77 148.44H1193.89V146.904H1181.6V141.768H1179.77V148.44ZM1198.98 145.416H1196.72L1195.43 151.8H1197.16L1198.98 145.416ZM1222.57 128.088H1220.74V133.512H1216.52V135.048H1220.74V140.472H1222.57V128.088ZM1205.38 138.84L1206.34 140.28C1208.84 139.344 1210.76 137.424 1211.67 134.976C1212.58 137.112 1214.41 138.864 1216.76 139.704L1217.72 138.216C1214.65 137.184 1212.56 134.592 1212.58 131.88V131.112H1217.24V129.576H1206.01V131.112H1210.71V131.88C1210.71 134.88 1208.5 137.712 1205.38 138.84ZM1208.7 145.032C1208.67 147.456 1211.34 148.872 1215.66 148.872C1220 148.872 1222.66 147.456 1222.66 145.032C1222.66 142.56 1220 141.144 1215.66 141.144C1211.34 141.144 1208.67 142.56 1208.7 145.032ZM1210.52 145.032C1210.5 143.496 1212.49 142.584 1215.66 142.584C1218.85 142.584 1220.84 143.496 1220.84 145.032C1220.84 146.52 1218.85 147.432 1215.66 147.432C1212.49 147.432 1210.5 146.52 1210.52 145.032ZM1231.89 131.976V129.336H1230.06V131.928C1230.04 135.168 1227.95 137.976 1224.78 139.128L1225.79 140.568C1228.26 139.632 1230.13 137.712 1231.05 135.24C1231.96 137.448 1233.81 139.2 1236.16 140.04L1237.07 138.6C1234.02 137.52 1231.86 134.856 1231.89 131.976ZM1228.14 148.44H1242.11V146.904H1230.01V141.96H1228.14V148.44ZM1239.33 143.448H1241.15V136.008H1244.27V134.472H1241.15V128.04H1239.33V143.448ZM1268.23 137.976H1249.22V139.512H1268.23V137.976ZM1251.48 145.128C1251.5 147.504 1254.19 148.848 1258.68 148.872C1263.16 148.848 1265.85 147.504 1265.88 145.128C1265.85 142.704 1263.16 141.36 1258.68 141.336C1254.19 141.36 1251.5 142.704 1251.48 145.128ZM1251.62 136.008H1265.97V134.472H1253.44V130.44H1265.83V128.904H1251.62V136.008ZM1253.35 145.128C1253.35 143.64 1255.34 142.8 1258.68 142.776C1261.99 142.8 1264 143.64 1264 145.128C1264 146.568 1261.99 147.408 1258.68 147.384C1255.34 147.408 1253.35 146.568 1253.35 145.128ZM572.358 168.024V167.16H577.014V165.624H565.782V167.16H570.534V168.024C570.51 171.024 568.326 173.712 565.206 174.792L566.166 176.232C568.638 175.344 570.582 173.496 571.47 171.12C572.382 173.184 574.182 174.84 576.582 175.656L577.446 174.216C574.374 173.184 572.334 170.76 572.358 168.024ZM567.99 181.032C567.99 183.456 570.606 184.848 574.902 184.872C579.174 184.848 581.766 183.456 581.766 181.032C581.766 178.608 579.174 177.216 574.902 177.192C570.606 177.216 567.99 178.608 567.99 181.032ZM569.814 181.032C569.814 179.544 571.758 178.68 574.902 178.68C578.046 178.68 579.966 179.544 579.99 181.032C579.966 182.496 578.046 183.384 574.902 183.384C571.758 183.384 569.814 182.496 569.814 181.032ZM579.75 176.664H581.574V170.952H584.694V169.416H581.574V164.088H579.75V176.664ZM603.9 180.648H595.164V175.56H593.34V180.648H584.844V182.184H603.9V180.648ZM585.564 174.264L586.38 175.8C589.572 175.128 592.884 172.992 594.276 170.016C595.62 172.992 598.98 175.128 602.124 175.8L602.988 174.264C599.34 173.64 595.212 170.568 595.212 167.112V165.48H593.292V167.112C593.268 170.592 589.212 173.64 585.564 174.264ZM610.627 165.432C607.387 165.456 605.083 167.424 605.107 170.328C605.083 172.944 606.955 174.816 609.715 175.128V178.752C607.699 178.8 605.779 178.824 604.099 178.824L604.435 180.36C608.083 180.408 613.003 180.36 617.443 179.592L617.299 178.2C615.475 178.44 613.531 178.584 611.587 178.68V175.128C614.299 174.792 616.195 172.944 616.195 170.328C616.195 167.424 613.843 165.456 610.627 165.432ZM606.883 170.328C606.883 168.36 608.467 167.016 610.627 167.016C612.811 167.016 614.371 168.36 614.419 170.328C614.371 172.272 612.811 173.64 610.627 173.64C608.467 173.64 606.883 172.272 606.883 170.328ZM618.643 184.92H620.467V174.264H623.875V172.68H620.467V164.088H618.643V184.92ZM635.689 167.448V165.144H633.865V167.304C633.841 170.52 631.753 173.304 628.633 174.456L629.641 175.944C632.065 175.008 633.937 173.088 634.825 170.616C635.713 172.8 637.561 174.528 639.865 175.368L640.825 173.88C637.825 172.872 635.665 170.28 635.689 167.448ZM631.417 181.08C631.417 183.48 634.033 184.848 638.329 184.872C642.601 184.848 645.193 183.48 645.193 181.08C645.193 178.68 642.601 177.288 638.329 177.288C634.033 177.288 631.417 178.68 631.417 181.08ZM633.241 181.08C633.241 179.64 635.185 178.752 638.329 178.776C641.473 178.752 643.393 179.64 643.417 181.08C643.393 182.544 641.473 183.384 638.329 183.384C635.185 183.384 633.241 182.544 633.241 181.08ZM643.177 176.76H645.001V171.048H648.121V169.512H645.001V164.088H643.177V176.76ZM659.791 165.672H649.423V167.208H658.015C657.991 168.528 657.943 170.304 657.439 172.824L659.263 172.968C659.791 170.232 659.791 168.144 659.791 166.776V165.672ZM648.127 174.888L648.319 176.424C652.039 176.4 657.055 176.328 661.423 175.56L661.279 174.216C659.119 174.528 656.743 174.696 654.415 174.792V170.28H652.591V174.84C650.983 174.888 649.471 174.888 648.127 174.888ZM651.343 184.44H665.263V182.904H653.215V178.344H651.343V184.44ZM662.719 179.736H664.591V172.44H667.615V170.856H664.591V164.088H662.719V179.736ZM671.941 176.28H670.213V184.632H677.461V176.28H675.733V178.872H671.941V176.28ZM668.149 169.8C668.101 172.632 670.357 174.576 673.525 174.6C676.357 174.576 678.493 172.968 678.853 170.52H683.221V175.128H685.045V164.088H683.221V168.984H678.829C678.445 166.584 676.309 165 673.525 165C670.357 165 668.101 166.944 668.149 169.8ZM669.877 169.8C669.877 167.88 671.389 166.536 673.525 166.536C675.637 166.536 677.149 167.88 677.125 169.8C677.149 171.696 675.637 173.064 673.525 173.064C671.389 173.064 669.877 171.696 669.877 169.8ZM671.941 183.144V180.312H675.733V183.144H671.941ZM677.701 183.384L678.661 184.776C680.533 183.984 681.805 182.52 682.477 180.816C683.101 182.544 684.373 184.008 686.293 184.776L687.253 183.384C684.709 182.448 683.365 180.144 683.413 177.912V176.136H681.589V177.912C681.565 180.048 680.245 182.328 677.701 183.384ZM704.491 164.088H702.667V184.92H704.491V164.088ZM688.123 172.92C688.123 177.384 690.331 180.192 693.451 180.216C696.523 180.192 698.755 177.384 698.779 172.92C698.755 168.504 696.523 165.696 693.451 165.672C690.331 165.696 688.123 168.504 688.123 172.92ZM689.899 172.92C689.899 169.56 691.339 167.328 693.451 167.304C695.515 167.328 696.955 169.56 696.955 172.92C696.955 176.328 695.515 178.56 693.451 178.536C691.339 178.56 689.899 176.328 689.899 172.92ZM719.186 167.928V167.016H723.986V165.528H712.466V167.016H717.314V167.928C717.314 170.88 715.106 173.592 711.986 174.696L712.946 176.136C715.442 175.248 717.386 173.376 718.298 171C719.234 173.184 721.178 174.888 723.602 175.704L724.514 174.312C721.418 173.28 719.186 170.736 719.186 167.928ZM714.866 179.304H727.058V184.92H728.882V177.768H714.866V179.304ZM727.058 176.664H728.882V164.088H727.058V176.664ZM749.096 164.088H747.32V172.344H744.392V164.52H742.616V183.864H744.392V173.88H747.32V184.92H749.096V164.088ZM731.96 179.304H739.976V166.488H731.96V179.304ZM733.736 177.816V167.976H738.248V177.816H733.736ZM757.838 168.024V167.16H762.494V165.624H751.262V167.16H756.014V168.024C755.99 171.024 753.806 173.712 750.686 174.792L751.646 176.232C754.118 175.344 756.062 173.496 756.95 171.12C757.862 173.184 759.662 174.84 762.062 175.656L762.926 174.216C759.854 173.184 757.814 170.76 757.838 168.024ZM753.47 181.032C753.47 183.456 756.086 184.848 760.382 184.872C764.654 184.848 767.246 183.456 767.246 181.032C767.246 178.608 764.654 177.216 760.382 177.192C756.086 177.216 753.47 178.608 753.47 181.032ZM755.294 181.032C755.294 179.544 757.238 178.68 760.382 178.68C763.526 178.68 765.446 179.544 765.47 181.032C765.446 182.496 763.526 183.384 760.382 183.384C757.238 183.384 755.294 182.496 755.294 181.032ZM765.23 176.664H767.054V170.952H770.174V169.416H767.054V164.088H765.23V176.664ZM781.844 165.672H771.476V167.208H780.068C780.044 168.528 779.996 170.304 779.492 172.824L781.316 172.968C781.844 170.232 781.844 168.144 781.844 166.776V165.672ZM770.18 174.888L770.372 176.424C774.092 176.4 779.108 176.328 783.476 175.56L783.332 174.216C781.172 174.528 778.796 174.696 776.468 174.792V170.28H774.644V174.84C773.036 174.888 771.524 174.888 770.18 174.888ZM773.396 184.44H787.316V182.904H775.268V178.344H773.396V184.44ZM784.772 179.736H786.644V172.44H789.668V170.856H786.644V164.088H784.772V179.736ZM807.05 164.088H805.226V184.92H807.05V164.088ZM791.018 167.544H798.842V171.912H791.066V179.88H792.794C796.394 179.88 799.562 179.736 803.402 179.112L803.21 177.576C799.466 178.2 796.418 178.344 792.938 178.344V173.4H800.714V166.008H791.018V167.544ZM819.921 165.048C816.753 165.024 814.497 167.016 814.545 169.848C814.497 172.704 816.753 174.672 819.921 174.696C822.753 174.672 824.889 173.04 825.249 170.568H829.617V175.224H831.441V164.088H829.617V169.08H825.249C824.865 166.656 822.729 165.024 819.921 165.048ZM816.273 169.848C816.273 167.928 817.785 166.584 819.921 166.584C822.033 166.584 823.545 167.928 823.521 169.848C823.545 171.744 822.033 173.112 819.921 173.112C817.785 173.112 816.273 171.744 816.273 169.848ZM818.049 184.632H831.441V176.28H829.617V178.92H819.873V176.28H818.049V184.632ZM819.873 183.096V180.408H829.617V183.096H819.873ZM852.759 176.184H833.703V177.72H842.295V184.872H844.071V177.72H852.759V176.184ZM836.151 173.352H850.311V165.24H836.151V173.352ZM837.975 171.912V166.728H848.487V171.912H837.975ZM872.301 173.736H853.245V175.176H872.301V173.736ZM855.549 178.248H868.125V180.024H855.597V184.632H870.621V183.288H857.421V181.272H869.949V176.856H855.549V178.248ZM855.645 166.008H868.029V167.736H855.741V172.2H870.237V170.856H857.565V169.032H869.853V164.712H855.645V166.008ZM893.907 163.992H892.083V175.512H893.907V170.568H897.075V169.08H893.907V163.992ZM877.683 167.448H890.067V165.96H884.787V163.848H882.963V165.96H877.683V167.448ZM878.883 171.816C878.835 173.928 880.827 175.2 883.875 175.224C886.899 175.2 888.867 173.928 888.867 171.816C888.867 169.68 886.899 168.384 883.875 168.36C880.827 168.384 878.835 169.68 878.883 171.816ZM880.611 178.008H892.083V179.88H880.659V184.68H894.675V183.24H882.483V181.224H893.907V176.616H880.611V178.008ZM880.611 171.816C880.611 170.544 881.883 169.752 883.875 169.752C885.843 169.752 887.139 170.544 887.139 171.816C887.139 173.064 885.843 173.832 883.875 173.832C881.883 173.832 880.611 173.064 880.611 171.816ZM912.393 166.008V164.808H910.521V166.008C910.521 168.984 906.705 171.48 902.937 172.008L903.705 173.496C906.945 172.968 910.137 171.192 911.481 168.624C912.825 171.168 916.017 172.968 919.257 173.496L920.025 172.008C916.257 171.48 912.417 168.936 912.393 166.008ZM901.977 177.336H910.521V184.92H912.297V177.336H920.937V175.8H901.977V177.336ZM933.327 178.056V176.904H931.551V178.056C931.551 180.048 929.967 182.28 927.327 183.24L928.239 184.584C930.231 183.864 931.695 182.424 932.439 180.744C933.063 182.472 934.359 184.008 936.399 184.776C938.319 183.96 939.567 182.352 940.215 180.672C940.935 182.424 942.399 183.864 944.463 184.584L945.423 183.24C942.735 182.328 941.151 180.192 941.151 178.056V176.904H939.375V178.056C939.351 179.664 938.319 181.776 936.303 183C934.359 181.872 933.351 179.904 933.327 178.056ZM926.799 170.184C926.775 173.04 929.079 175.008 932.271 175.032C935.415 175.008 937.695 173.04 937.695 170.184C937.695 167.28 935.415 165.288 932.271 165.288C929.079 165.288 926.775 167.28 926.799 170.184ZM928.575 170.184C928.575 168.24 930.111 166.848 932.271 166.872C934.383 166.848 935.919 168.24 935.919 170.184C935.919 172.104 934.383 173.472 932.271 173.496C930.111 173.472 928.575 172.104 928.575 170.184ZM941.679 175.992H943.503V164.088H941.679V175.992ZM962.662 170.376H950.23V164.856H948.406V171.864H962.662V170.376ZM945.814 176.184H964.87V174.696H945.814V176.184ZM948.31 184.392H962.806V182.856H950.134V178.344H948.31V184.392ZM980.572 167.16V165.528H978.652V167.16C978.628 170.712 974.596 173.856 970.972 174.552L971.836 176.088C974.98 175.368 978.268 173.136 979.636 170.112C981.004 173.136 984.292 175.368 987.436 176.088L988.3 174.552C984.652 173.88 980.572 170.712 980.572 167.16ZM970.204 182.088H989.26V180.552H970.204V182.088ZM1000.21 166.2H990.61V179.592H1000.21V166.2ZM992.386 178.104V167.64H998.386V178.104H992.386ZM1004 184.92H1005.87V173.976H1009.33V172.392H1005.87V164.088H1004V184.92ZM1026.14 175.32H1013.61V172.008H1025.46V170.52H1013.61V167.4H1025.9V165.864H1011.74V176.856H1026.14V175.32ZM1009.29 182.184H1028.34V180.648H1009.29V182.184ZM1046.06 164.088H1044.19V178.344H1039.39V179.736H1044.19V184.92H1046.06V164.088ZM1028.73 175.08L1028.97 176.616C1030.65 176.616 1032.55 176.592 1034.54 176.52V184.248H1036.41V176.424C1038.5 176.304 1040.64 176.088 1042.7 175.752L1042.56 174.36C1037.97 175.032 1032.69 175.056 1028.73 175.08ZM1030.32 169.224C1030.29 171.696 1032.45 173.28 1035.6 173.304C1038.67 173.28 1040.85 171.696 1040.83 169.224C1040.85 166.776 1038.67 165.12 1035.6 165.096C1032.45 165.12 1030.29 166.776 1030.32 169.224ZM1032.05 169.224C1032.02 167.64 1033.49 166.56 1035.6 166.536C1037.64 166.56 1039.08 167.64 1039.1 169.224C1039.08 170.808 1037.64 171.888 1035.6 171.864C1033.49 171.888 1032.02 170.808 1032.05 169.224ZM1064.98 166.2H1050.63V167.736H1063.2V168.792C1063.2 169.848 1063.18 170.904 1063.16 171.984L1050.1 172.536L1050.34 174.072L1063.06 173.376C1062.94 175.008 1062.72 176.736 1062.24 178.728L1064.12 178.92C1064.98 174.672 1064.98 171.84 1064.98 168.792V166.2ZM1048.37 181.992H1067.33V180.408H1048.37V181.992ZM1080.11 169.656V165.864H1078.28V169.656C1078.26 173.616 1075.69 177.6 1072.57 179.016L1073.72 180.552C1076.17 179.328 1078.23 176.688 1079.19 173.52C1080.18 176.52 1082.24 178.992 1084.62 180.168L1085.72 178.68C1082.67 177.288 1080.08 173.472 1080.11 169.656ZM1088.03 184.92H1089.85V164.088H1088.03V184.92ZM1102.63 167.16V165.528H1100.71V167.16C1100.68 170.712 1096.65 173.856 1093.03 174.552L1093.89 176.088C1097.03 175.368 1100.32 173.136 1101.69 170.112C1103.06 173.136 1106.35 175.368 1109.49 176.088L1110.35 174.552C1106.71 173.88 1102.63 170.712 1102.63 167.16ZM1092.26 182.088H1111.31V180.552H1092.26V182.088ZM1120.68 165.432H1112.76V175.32H1114.06C1117.44 175.32 1119.43 175.224 1121.83 174.744L1121.64 173.304C1119.43 173.712 1117.56 173.832 1114.54 173.832V171H1119.86V169.56H1114.54V166.968H1120.68V165.432ZM1115.69 184.632H1129.46V177.576H1115.69V184.632ZM1117.51 183.096V179.112H1127.69V183.096H1117.51ZM1120.82 170.856H1123.66V176.424H1125.43V164.424H1123.66V169.32H1120.82V170.856ZM1127.74 176.616H1129.46V164.088H1127.74V176.616ZM1153.9 164.088H1152.17V184.92H1153.9V164.088ZM1135.85 179.352L1137.05 180.744C1139.12 179.424 1140.63 176.976 1141.37 174.12C1142.12 176.784 1143.56 179.016 1145.6 180.216L1146.75 178.872C1143.87 177.216 1142.24 173.616 1142.24 169.992V168.072H1146.03V166.536H1136.43V168.072H1140.46V169.992C1140.46 173.808 1138.78 177.624 1135.85 179.352ZM1144.45 173.112H1148V183.816H1149.73V164.568H1148V171.576H1144.45V173.112ZM1165.09 177.24C1160.63 177.24 1157.8 178.632 1157.8 181.08C1157.8 183.456 1160.63 184.848 1165.09 184.872C1169.56 184.848 1172.39 183.456 1172.39 181.08C1172.39 178.632 1169.56 177.24 1165.09 177.24ZM1155.68 175.272H1174.64V173.784H1165.33V169.752H1163.56V173.784H1155.68V175.272ZM1157.94 166.632H1170.42V166.92C1170.4 168.528 1170.4 170.064 1169.84 172.248L1171.62 172.44C1172.22 170.28 1172.22 168.576 1172.24 166.92V165.144H1157.94V166.632ZM1159.62 181.08C1159.62 179.568 1161.76 178.656 1165.09 178.632C1168.4 178.656 1170.54 179.568 1170.56 181.08C1170.54 182.496 1168.4 183.408 1165.09 183.384C1161.76 183.408 1159.62 182.496 1159.62 181.08Z" fill="#444444"/>
<defs>
<linearGradient id="paint0_linear_181_5625" x1="715.25" y1="290.578" x2="735.325" y2="326.865" gradientUnits="userSpaceOnUse">
<stop stop-color="#00A388"/>
<stop offset="1" stop-color="#89CEA0"/>
</linearGradient>
<linearGradient id="paint1_linear_181_5625" x1="715.25" y1="290.578" x2="735.325" y2="326.865" gradientUnits="userSpaceOnUse">
<stop stop-color="#00A388"/>
<stop offset="1" stop-color="#89CEA0"/>
</linearGradient>
</defs>
</svg>
